<svg xmlns="http://www.w3.org/2000/svg" version="1.1" width="1024px" height="1024px" style="shape-rendering:geometricPrecision; text-rendering:geometricPrecision; image-rendering:optimizeQuality; fill-rule:evenodd; clip-rule:evenodd" xmlns:xlink="http://www.w3.org/1999/xlink">
<g><path style="opacity:0.004" fill="#3a3a3b" d="M 323.5,5.5 C 324.833,6.16667 324.833,6.16667 323.5,5.5 Z"/></g>
<g><path style="opacity:0.004" fill="#363535" d="M 731.5,29.5 C 732.833,30.1667 732.833,30.1667 731.5,29.5 Z"/></g>
<g><path style="opacity:0.004" fill="#3c3d3d" d="M 403.5,45.5 C 404.833,46.1667 404.833,46.1667 403.5,45.5 Z"/></g>
<g><path style="opacity:0.004" fill="#393b3a" d="M 635.5,45.5 C 636.833,46.1667 636.833,46.1667 635.5,45.5 Z"/></g>
<g><path style="opacity:0.004" fill="#2e2d2d" d="M 891.5,61.5 C 892.833,62.1667 892.833,62.1667 891.5,61.5 Z"/></g>
<g><path style="opacity:0.004" fill="#2e2e2c" d="M 915.5,61.5 C 916.833,62.1667 916.833,62.1667 915.5,61.5 Z"/></g>
<g><path style="opacity:0.008" fill="#2b2b2c" d="M 503.5,128.5 C 502.761,128.631 502.094,128.464 501.5,128C 502.437,127.308 503.103,127.475 503.5,128.5 Z"/></g>
<g><path style="opacity:0.016" fill="#303030" d="M 523.5,127.5 C 524.833,128.167 524.833,128.167 523.5,127.5 Z"/></g>
<g><path style="opacity:0.012" fill="#2c2d2d" d="M 500.5,129.5 C 497.999,129.489 497.832,128.822 500,127.5C 500.464,128.094 500.631,128.761 500.5,129.5 Z"/></g>
<g><path style="opacity:0.765" fill="#2b2c2c" d="M 518.5,129.5 C 513.5,129.5 508.5,129.5 503.5,129.5C 503.5,129.167 503.5,128.833 503.5,128.5C 508.43,128.803 513.263,128.469 518,127.5C 518.464,128.094 518.631,128.761 518.5,129.5 Z"/></g>
<g><path style="opacity:0.004" fill="#2f3131" d="M 487.5,129.5 C 488.833,130.167 488.833,130.167 487.5,129.5 Z"/></g>
<g><path style="opacity:0.004" fill="#2d2d2e" d="M 494.5,129.5 C 495.833,130.167 495.833,130.167 494.5,129.5 Z"/></g>
<g><path style="opacity:0.02" fill="#2c2c2c" d="M 525.5,130.5 C 525.897,129.475 526.563,129.308 527.5,130C 526.906,130.464 526.239,130.631 525.5,130.5 Z"/></g>
<g><path style="opacity:0.998" fill="#111315" d="M 500.5,129.5 C 501.5,129.5 502.5,129.5 503.5,129.5C 508.5,129.5 513.5,129.5 518.5,129.5C 533.626,132.795 542.459,142.128 545,157.5C 546.055,171.728 540.555,182.395 528.5,189.5C 526.736,188.288 525.07,188.621 523.5,190.5C 522.18,208.868 522.18,227.201 523.5,245.5C 556.828,246.333 590.162,246.833 623.5,247C 628.486,247.916 633.486,248.25 638.5,248C 637.584,247.722 636.918,247.222 636.5,246.5C 646.587,248.64 656.253,251.973 665.5,256.5C 669.463,259.154 673.463,261.82 677.5,264.5C 684.464,269.797 690.798,275.797 696.5,282.5C 696.738,284.404 697.738,285.738 699.5,286.5C 700.11,288.434 701.11,290.101 702.5,291.5C 705.65,296.805 707.984,302.471 709.5,308.5C 708.876,308.917 708.543,309.584 708.5,310.5C 709.881,316.121 711.048,321.788 712,327.5C 712.667,367.167 712.667,406.833 712,446.5C 711.5,449 711,451.5 710.5,454C 710.528,455.07 710.861,455.903 711.5,456.5C 711.167,458.5 710.833,460.5 710.5,462.5C 709.662,462.842 709.328,463.508 709.5,464.5C 707.179,467.796 704.846,471.129 702.5,474.5C 692.499,483.668 680.832,489.334 667.5,491.5C 666.167,493.167 666.167,494.833 667.5,496.5C 677.789,497.158 688.122,498.825 698.5,501.5C 703.942,504.225 709.276,506.559 714.5,508.5C 717.409,510.219 720.243,512.219 723,514.5C 723.333,514.167 723.667,513.833 724,513.5C 729.831,519.505 735.998,525.171 742.5,530.5C 753.029,543.557 760.362,558.224 764.5,574.5C 765.053,579.482 765.387,584.482 765.5,589.5C 764.667,643.332 764.167,697.332 764,751.5C 763.618,757.677 763.118,763.844 762.5,770C 762.508,771.707 762.842,773.207 763.5,774.5C 762.711,779.536 761.711,784.536 760.5,789.5C 752.087,808.312 739.421,823.646 722.5,835.5C 714.916,839.459 707.25,843.126 699.5,846.5C 696.833,846.833 694.167,847.167 691.5,847.5C 690.551,846.848 689.385,846.514 688,846.5C 683.842,847.073 679.676,847.573 675.5,848C 564.666,848.167 453.999,848.667 343.5,849.5C 342.833,849.5 342.167,849.5 341.5,849.5C 333.659,848.623 325.993,846.956 318.5,844.5C 311.079,841.288 304.079,837.288 297.5,832.5C 296.71,831.599 295.71,830.932 294.5,830.5C 292.513,830.212 290.846,828.879 289.5,826.5C 286.833,823.833 284.167,821.167 281.5,818.5C 280.974,816.77 279.974,815.436 278.5,814.5C 278.167,813.5 277.5,812.833 276.5,812.5C 276.573,810.973 275.906,809.973 274.5,809.5C 273.331,806.489 271.664,803.822 269.5,801.5C 267.173,796.748 265.173,791.415 263.5,785.5C 264.124,785.083 264.457,784.416 264.5,783.5C 261.926,772.985 260.426,762.318 260,751.5C 259.566,693.989 259.4,636.656 259.5,579.5C 260.133,571.603 261.8,563.936 264.5,556.5C 267.911,550.011 271.577,543.678 275.5,537.5C 277.471,535.192 279.471,532.858 281.5,530.5C 288.525,523.145 296.191,516.479 304.5,510.5C 320.521,502.079 337.521,496.912 355.5,495C 353.714,494.804 352.381,493.971 351.5,492.5C 351.957,491.702 352.624,491.369 353.5,491.5C 347.898,489.842 342.232,488.008 336.5,486C 334.246,484.623 332.08,483.123 330,481.5C 329.549,483.929 328.715,484.096 327.5,482C 327.833,481.667 328.167,481.333 328.5,481C 325.938,478.267 323.271,475.767 320.5,473.5C 318.802,470.144 316.468,467.477 313.5,465.5C 313.611,464.883 313.944,464.383 314.5,464C 313.331,461.993 312.665,459.827 312.5,457.5C 313.246,454.614 313.08,451.614 312,448.5C 311.547,404.313 311.38,360.313 311.5,316.5C 313.639,303.561 318.972,292.228 327.5,282.5C 328.401,281.71 329.068,280.71 329.5,279.5C 332.22,276.303 334.72,273.636 337,271.5C 338.376,270.295 339.542,268.962 340.5,267.5C 341.167,267.5 341.5,267.167 341.5,266.5C 342.71,266.068 343.71,265.401 344.5,264.5C 358.934,253.457 375.267,247.123 393.5,245.5C 427.835,245.667 462.168,245.5 496.5,245C 497.056,244.617 497.389,244.117 497.5,243.5C 496.37,234.806 496.37,225.806 497.5,216.5C 497.5,214.833 497.5,213.167 497.5,211.5C 497.63,208.367 497.296,205.367 496.5,202.5C 497.808,198.981 497.808,195.315 496.5,191.5C 495.583,190.873 494.583,190.539 493.5,190.5C 493.027,189.094 492.027,188.427 490.5,188.5C 488.833,186.167 486.833,184.167 484.5,182.5C 476.405,170.445 475.405,157.778 481.5,144.5C 483.804,141.859 486.138,139.192 488.5,136.5C 492.24,133.633 496.24,131.3 500.5,129.5 Z M 441.5,334.5 C 441.833,335.833 442.167,335.833 442.5,334.5C 445.855,335.855 448.189,338.189 449.5,341.5C 448.167,341.833 448.167,342.167 449.5,342.5C 449.5,343.167 449.833,343.5 450.5,343.5C 450.833,346.167 451.167,346.167 451.5,343.5C 455.404,347.655 457.404,352.655 457.5,358.5C 458.486,362.97 458.819,367.637 458.5,372.5C 457.388,374.599 456.721,376.933 456.5,379.5C 446.332,399.258 430.666,406.425 409.5,401C 388.135,390.936 380.635,374.436 387,351.5C 388.953,345.901 392.12,341.234 396.5,337.5C 407.948,327.778 420.948,325.278 435.5,330C 438.146,330.804 440.146,332.304 441.5,334.5 Z M 627.5,339.5 C 626.453,340.078 626.62,340.744 628,341.5C 628.399,341.272 628.565,340.938 628.5,340.5C 629.5,340.833 630.167,341.5 630.5,342.5C 631.954,343.52 632.287,344.687 631.5,346C 632.167,346.333 632.833,346.667 633.5,347C 632.167,348.84 632.334,349.34 634,348.5C 638.665,357.309 639.498,366.309 636.5,375.5C 635.273,381.954 632.44,387.62 628,392.5C 624.79,395.88 620.957,398.213 616.5,399.5C 603.096,404.999 590.096,403.833 577.5,396C 576.29,394.961 575.29,393.794 574.5,392.5C 575.547,391.922 575.38,391.256 574,390.5C 573.601,390.728 573.435,391.062 573.5,391.5C 570.71,390.033 569.044,387.7 568.5,384.5C 566.59,383.025 565.424,381.025 565,378.5C 559.906,361.094 564.406,346.261 578.5,334C 581.071,332.546 583.738,331.38 586.5,330.5C 597.58,326.168 608.58,326.668 619.5,332C 622.666,334 625.332,336.5 627.5,339.5 Z M 449.5,342.5 C 449.5,342.167 449.5,341.833 449.5,341.5C 450.833,341.5 451.5,342.167 451.5,343.5C 451.167,343.5 450.833,343.5 450.5,343.5C 449.833,343.5 449.5,343.167 449.5,342.5 Z M 645.5,474.5 C 646.167,474.5 646.833,474.5 647.5,474.5C 647.672,475.492 647.338,476.158 646.5,476.5C 646.5,477.833 646.5,479.167 646.5,480.5C 646.011,481.995 645.345,483.329 644.5,484.5C 639.711,504.157 634.378,523.657 628.5,543C 627.563,543.692 626.897,543.525 626.5,542.5C 621.494,539.494 617.494,535.494 614.5,530.5C 613.038,529.542 611.705,528.376 610.5,527C 609.167,526.333 607.833,526.333 606.5,527C 603.282,530.721 599.615,533.887 595.5,536.5C 592.833,541.167 589.167,544.833 584.5,547.5C 582.712,550.333 580.378,552.666 577.5,554.5C 575.868,557.133 573.868,559.467 571.5,561.5C 569.413,562.585 568.08,564.251 567.5,566.5C 558.514,575.484 549.181,584.151 539.5,592.5C 529.248,603.419 518.581,614.086 507.5,624.5C 504.5,628.167 501.167,631.5 497.5,634.5C 495.554,638.317 492.554,640.15 488.5,640C 480.631,632.298 472.964,624.465 465.5,616.5C 464.128,615.488 462.795,614.488 461.5,613.5C 460.5,613.5 459.5,613.5 458.5,613.5C 458.167,614.5 457.5,615.167 456.5,615.5C 455.833,616.833 454.833,617.833 453.5,618.5C 452.922,617.453 452.256,617.62 451.5,619C 451.728,619.399 452.062,619.565 452.5,619.5C 451.167,621.5 449.5,623.167 447.5,624.5C 445.833,626.5 444.167,628.5 442.5,630.5C 441.234,631.09 439.901,631.59 438.5,632C 438.833,632.333 439.167,632.667 439.5,633C 437.963,634.707 436.296,636.207 434.5,637.5C 432.194,640.473 429.527,643.14 426.5,645.5C 425.167,647.5 423.5,649.167 421.5,650.5C 419.833,652.833 417.833,654.833 415.5,656.5C 414.922,655.453 414.256,655.62 413.5,657C 413.728,657.399 414.062,657.565 414.5,657.5C 413.5,658.833 412.5,660.167 411.5,661.5C 410.167,662.5 408.833,663.5 407.5,664.5C 407.565,664.062 407.399,663.728 407,663.5C 406.167,664.333 405.333,665.167 404.5,666C 404.728,666.399 405.062,666.565 405.5,666.5C 405.167,667.5 404.5,668.167 403.5,668.5C 402.833,669.833 401.833,670.833 400.5,671.5C 399.167,673.5 397.5,675.167 395.5,676.5C 394.922,675.453 394.256,675.62 393.5,677C 393.728,677.399 394.062,677.565 394.5,677.5C 393.833,678.833 392.833,679.833 391.5,680.5C 387.189,687.668 381.189,690.335 373.5,688.5C 365.858,685.353 362.692,679.687 364,671.5C 368.702,666.63 373.535,661.963 378.5,657.5C 379.167,656.167 380.167,655.167 381.5,654.5C 389.167,646.167 397.167,638.167 405.5,630.5C 407.833,627.5 410.5,624.833 413.5,622.5C 414.5,620.833 415.833,619.5 417.5,618.5C 419.833,615.5 422.5,612.833 425.5,610.5C 426.5,608.833 427.833,607.5 429.5,606.5C 430.5,604.833 431.833,603.5 433.5,602.5C 435.833,599.5 438.5,596.833 441.5,594.5C 441.833,593.5 442.5,592.833 443.5,592.5C 447.63,587.869 451.963,583.369 456.5,579C 460.385,576.646 463.718,577.146 466.5,580.5C 465.453,581.078 465.62,581.744 467,582.5C 467.399,582.272 467.565,581.938 467.5,581.5C 469.5,582.833 471.167,584.5 472.5,586.5C 473.833,587.167 474.833,588.167 475.5,589.5C 477.5,590.833 479.167,592.5 480.5,594.5C 479.453,595.078 479.62,595.744 481,596.5C 481.399,596.272 481.565,595.938 481.5,595.5C 483.817,597.797 486.484,599.797 489.5,601.5C 489.5,601.833 489.5,602.167 489.5,602.5C 490.833,602.5 492.167,602.5 493.5,602.5C 493.5,602.833 493.5,603.167 493.5,603.5C 495.424,603.289 495.757,602.623 494.5,601.5C 494.5,601.167 494.5,600.833 494.5,600.5C 498.833,596.5 503.167,592.5 507.5,588.5C 510.833,584.5 514.5,580.833 518.5,577.5C 533.658,561.338 549.325,546.005 565.5,531.5C 572.595,522.901 580.262,514.735 588.5,507C 582.691,500.357 576.691,493.857 570.5,487.5C 569.295,486.005 569.295,484.672 570.5,483.5C 570.5,483.167 570.5,482.833 570.5,482.5C 585.174,481.24 599.841,479.907 614.5,478.5C 615.251,479.573 616.251,479.74 617.5,479C 617.167,478.667 616.833,478.333 616.5,478C 626.201,476.912 635.868,475.746 645.5,474.5 Z M 353.5,491.5 C 355.028,491.517 355.528,492.184 355,493.5C 354.283,492.956 353.783,492.289 353.5,491.5 Z M 593.5,575.5 C 603.5,575.5 613.5,575.5 623.5,575.5C 627.709,576.017 631.709,577.35 635.5,579.5C 635.5,580.5 635.5,581.5 635.5,582.5C 636.531,584.961 637.198,587.627 637.5,590.5C 636.751,591.531 636.085,592.698 635.5,594C 636.094,594.464 636.761,594.631 637.5,594.5C 636.595,595.702 636.595,597.036 637.5,598.5C 635.219,599.634 635.219,600.968 637.5,602.5C 636.561,611.03 636.561,619.697 637.5,628.5C 636.711,628.783 636.044,629.283 635.5,630C 636.435,632.381 636.768,634.881 636.5,637.5C 635.167,637.833 635.167,638.167 636.5,638.5C 636.905,641.795 637.238,645.129 637.5,648.5C 634.833,649.5 634.833,650.5 637.5,651.5C 637.5,653.167 637.5,654.833 637.5,656.5C 636.833,656.833 636.167,657.167 635.5,657.5C 635.833,658.5 636.5,659.167 637.5,659.5C 637.5,660.5 637.5,661.5 637.5,662.5C 637.167,662.5 636.833,662.5 636.5,662.5C 635.032,665.42 635.365,668.42 637.5,671.5C 637.219,681.412 637.219,691.412 637.5,701.5C 636.833,702.5 636.167,703.5 635.5,704.5C 635.818,705.647 636.484,706.481 637.5,707C 636.748,707.671 636.414,708.504 636.5,709.5C 635.167,709.833 635.167,710.167 636.5,710.5C 637.833,712.833 637.833,715.167 636.5,717.5C 635.167,717.833 635.167,718.167 636.5,718.5C 636.554,720.194 636.554,721.86 636.5,723.5C 637.641,725.451 637.641,727.451 636.5,729.5C 635.167,729.833 635.167,730.167 636.5,730.5C 637.234,731.708 637.567,733.041 637.5,734.5C 636.711,734.783 636.044,735.283 635.5,736C 636.833,736.667 636.833,737.333 635.5,738C 636.094,738.464 636.761,738.631 637.5,738.5C 637.199,745.951 637.199,753.451 637.5,761C 637.383,765.261 636.383,769.261 634.5,773C 632.35,774.411 630.016,775.245 627.5,775.5C 615.882,774.943 604.882,774.943 594.5,775.5C 591.782,774.957 589.115,774.291 586.5,773.5C 585.833,772.833 585.167,772.167 584.5,771.5C 583.368,708.529 583.368,645.196 584.5,581.5C 584.833,581.5 585.167,581.5 585.5,581.5C 585.511,579.983 586.177,578.816 587.5,578C 589.611,577.155 591.611,576.322 593.5,575.5 Z M 545.5,642.5 C 546.878,643.234 548.378,643.901 550,644.5C 552.381,643.565 554.881,643.232 557.5,643.5C 557.833,643.5 558.167,643.5 558.5,643.5C 560.134,644.955 561.468,646.622 562.5,648.5C 562.666,653.844 562.499,659.177 562,664.5C 561.667,662.5 561.333,660.5 561,658.5C 560.333,661.833 560.333,665.167 561,668.5C 561.333,667.5 561.667,666.5 562,665.5C 562.5,700.165 562.667,734.832 562.5,769.5C 562.5,770.167 562.167,770.5 561.5,770.5C 561.79,766.446 561.123,765.946 559.5,769C 560.056,769.383 560.389,769.883 560.5,770.5C 559.167,771.167 559.167,771.833 560.5,772.5C 559.564,773.974 558.23,774.974 556.5,775.5C 543.14,775.496 529.474,775.163 515.5,774.5C 514.496,773.317 513.662,771.984 513,770.5C 512.5,729.835 512.333,689.168 512.5,648.5C 513.272,647.306 514.272,646.306 515.5,645.5C 515.833,644.833 516.167,644.167 516.5,643.5C 526.126,642.859 535.793,642.526 545.5,642.5 Z M 491.5,683.5 C 491.5,684.833 491.5,686.167 491.5,687.5C 491.484,714.806 491.484,741.806 491.5,768.5C 490.766,769.708 490.433,771.041 490.5,772.5C 490.167,772.5 489.833,772.5 489.5,772.5C 488.378,773.947 486.878,774.947 485,775.5C 473.479,774.736 461.813,774.736 450,775.5C 448.698,774.915 447.531,774.249 446.5,773.5C 445.222,773.218 444.222,772.551 443.5,771.5C 442.533,743.192 442.2,714.859 442.5,686.5C 443.264,684.26 444.098,681.927 445,679.5C 446.008,679.018 447.175,678.852 448.5,679C 448.167,678.667 447.833,678.333 447.5,678C 460.833,677.333 474.167,677.333 487.5,678C 489.469,679.5 490.802,681.333 491.5,683.5 Z M 413.5,714.5 C 414.883,715.443 416.216,716.443 417.5,717.5C 418.209,718.404 419.209,718.737 420.5,718.5C 421.657,722.216 421.657,725.883 420.5,729.5C 421.833,731.167 421.833,732.833 420.5,734.5C 421.643,745.757 421.81,757.091 421,768.5C 420.79,770.058 420.29,771.391 419.5,772.5C 419.167,769.833 418.833,769.833 418.5,772.5C 417.5,773.5 416.5,774.5 415.5,775.5C 415.167,775.5 414.833,775.5 414.5,775.5C 405.49,775.392 396.49,775.392 387.5,775.5C 383.519,774.979 379.519,774.646 375.5,774.5C 375.167,773.833 374.833,773.167 374.5,772.5C 373.833,772.167 373.167,771.833 372.5,771.5C 371.942,755.83 371.608,739.83 371.5,723.5C 372.302,722.048 372.802,720.382 373,718.5C 373.816,717.177 374.983,716.511 376.5,716.5C 379.263,715.345 382.263,714.678 385.5,714.5C 391.795,714.648 397.795,714.648 403.5,714.5C 404.5,714.667 405.5,714.833 406.5,715C 405.304,715.654 405.304,716.154 406.5,716.5C 407.478,716.023 408.311,715.357 409,714.5C 410.414,715.413 411.914,715.413 413.5,714.5 Z"/></g>
<g><path style="opacity:0.004" fill="#2f312f" d="M 487.5,132.5 C 488.833,133.167 488.833,133.167 487.5,132.5 Z"/></g>
<g><path style="opacity:0.008" fill="#313230" d="M 482.5,136.5 C 481.833,135.167 481.833,135.167 482.5,136.5 Z"/></g>
<g><path style="opacity:0.004" fill="#313133" d="M 488.5,136.5 C 487.833,135.167 487.833,135.167 488.5,136.5 Z"/></g>
<g><path style="opacity:0.004" fill="#2f302e" d="M 482.5,136.5 C 483.833,137.167 483.833,137.167 482.5,136.5 Z"/></g>
<g><path style="opacity:0.004" fill="#2f2f32" d="M 541.5,136.5 C 542.833,137.167 542.833,137.167 541.5,136.5 Z"/></g>
<g><path style="opacity:0.016" fill="#2e312f" d="M 481.5,141.5 C 482.833,142.167 482.833,142.167 481.5,141.5 Z"/></g>
<g><path style="opacity:0.004" fill="#333233" d="M 481.5,144.5 C 480.833,143.167 480.833,143.167 481.5,144.5 Z"/></g>
<g><path style="opacity:0.006" fill="#2f2f30" d="M 475.5,157.5 C 476.525,157.897 476.692,158.563 476,159.5C 475.536,158.906 475.369,158.239 475.5,157.5 Z"/></g>
<g><path style="opacity:0.004" fill="#2d2e30" d="M 475.5,161.5 C 476.833,162.167 476.833,162.167 475.5,161.5 Z"/></g>
<g><path style="opacity:0.008" fill="#2d2f2f" d="M 479.5,180.5 C 480.833,181.167 480.833,181.167 479.5,180.5 Z"/></g>
<g><path style="opacity:0.012" fill="#282829" d="M 484.5,182.5 C 483.833,183.167 483.833,183.167 484.5,182.5 Z"/></g>
<g><path style="opacity:0.004" fill="#2e292e" d="M 490.5,188.5 C 489.833,189.167 489.833,189.167 490.5,188.5 Z"/></g>
<g><path style="opacity:0.008" fill="#2c2c2e" d="M 488.5,190.5 C 489.833,191.167 489.833,191.167 488.5,190.5 Z"/></g>
<g><path style="opacity:0.02" fill="#2b292b" d="M 493.5,190.5 C 493.103,191.525 492.437,191.692 491.5,191C 492.094,190.536 492.761,190.369 493.5,190.5 Z"/></g>
<g><path style="opacity:0.004" fill="#2a292b" d="M 495.5,192.5 C 496.525,192.897 496.692,193.563 496,194.5C 495.536,193.906 495.369,193.239 495.5,192.5 Z"/></g>
<g><path style="opacity:0.004" fill="#313334" d="M 475.5,197.5 C 476.833,198.167 476.833,198.167 475.5,197.5 Z"/></g>
<g><path style="opacity:0.004" fill="#292b2a" d="M 526.5,200.5 C 527.833,201.167 527.833,201.167 526.5,200.5 Z"/></g>
<g><path style="opacity:0.008" fill="#2a2a29" d="M 496.5,202.5 C 495.833,201.167 495.833,201.167 496.5,202.5 Z"/></g>
<g><path style="opacity:0.01" fill="#39393a" d="M 497.5,211.5 C 497.5,213.167 497.5,214.833 497.5,216.5C 495.078,214.952 495.078,213.286 497.5,211.5 Z"/></g>
<g><path style="opacity:0.008" fill="#292c2b" d="M 495.5,217.5 C 496.833,218.167 496.833,218.167 495.5,217.5 Z"/></g>
<g><path style="opacity:0.004" fill="#2a2c2a" d="M 526.5,218.5 C 527.833,219.167 527.833,219.167 526.5,218.5 Z"/></g>
<g><path style="opacity:0.993" fill="#040404" d="M 528.5,189.5 C 527.71,190.401 526.71,191.068 525.5,191.5C 524.503,209.326 524.17,227.326 524.5,245.5C 558.833,245.5 593.167,245.5 627.5,245.5C 630.609,245.264 633.609,245.597 636.5,246.5C 636.918,247.222 637.584,247.722 638.5,248C 633.486,248.25 628.486,247.916 623.5,247C 590.162,246.833 556.828,246.333 523.5,245.5C 522.18,227.201 522.18,208.868 523.5,190.5C 525.07,188.621 526.736,188.288 528.5,189.5 Z"/></g>
<g><path style="opacity:0.004" fill="#323332" d="M 383.5,239.5 C 384.833,240.167 384.833,240.167 383.5,239.5 Z"/></g>
<g><path style="opacity:0.004" fill="#323332" d="M 390.5,240.5 C 391.833,241.167 391.833,241.167 390.5,240.5 Z"/></g>
<g><path style="opacity:0.014" fill="#2d2c2d" d="M 526.5,240.5 C 527.573,241.251 527.74,242.251 527,243.5C 526.517,242.552 526.351,241.552 526.5,240.5 Z"/></g>
<g><path style="opacity:0.012" fill="#2f3130" d="M 569.5,240.5 C 570.833,241.167 570.833,241.167 569.5,240.5 Z"/></g>
<g><path style="opacity:0.004" fill="#333432" d="M 385.5,242.5 C 384.833,241.167 384.833,241.167 385.5,242.5 Z"/></g>
<g><path style="opacity:0.004" fill="#303031" d="M 597.5,241.5 C 598.833,242.167 598.833,242.167 597.5,241.5 Z"/></g>
<g><path style="opacity:0.004" fill="#303231" d="M 385.5,242.5 C 386.167,242.5 386.5,242.833 386.5,243.5C 386.167,243.167 385.833,242.833 385.5,242.5 Z"/></g>
<g><path style="opacity:0.004" fill="#2f302e" d="M 407.5,242.5 C 408.833,243.167 408.833,243.167 407.5,242.5 Z"/></g>
<g><path style="opacity:0.012" fill="#2f312e" d="M 409.5,242.5 C 410.833,243.167 410.833,243.167 409.5,242.5 Z"/></g>
<g><path style="opacity:0.008" fill="#2f322f" d="M 431.5,242.5 C 432.833,243.167 432.833,243.167 431.5,242.5 Z"/></g>
<g><path style="opacity:0.008" fill="#30322c" d="M 433.5,242.5 C 434.833,243.167 434.833,243.167 433.5,242.5 Z"/></g>
<g><path style="opacity:0.004" fill="#2f2e2e" d="M 441.5,242.5 C 442.833,243.167 442.833,243.167 441.5,242.5 Z"/></g>
<g><path style="opacity:0.012" fill="#2d312f" d="M 445.5,242.5 C 446.833,243.167 446.833,243.167 445.5,242.5 Z"/></g>
<g><path style="opacity:0.004" fill="#2f2f2c" d="M 447.5,242.5 C 448.833,243.167 448.833,243.167 447.5,242.5 Z"/></g>
<g><path style="opacity:0.004" fill="#2f2f2d" d="M 454.5,242.5 C 455.833,243.167 455.833,243.167 454.5,242.5 Z"/></g>
<g><path style="opacity:0.008" fill="#2e2f2d" d="M 465.5,242.5 C 466.833,243.167 466.833,243.167 465.5,242.5 Z"/></g>
<g><path style="opacity:0.008" fill="#2e2e2e" d="M 469.5,242.5 C 470.833,243.167 470.833,243.167 469.5,242.5 Z"/></g>
<g><path style="opacity:0.008" fill="#2b2d2b" d="M 478.5,242.5 C 479.833,243.167 479.833,243.167 478.5,242.5 Z"/></g>
<g><path style="opacity:0.004" fill="#2d2e2a" d="M 553.5,242.5 C 554.833,243.167 554.833,243.167 553.5,242.5 Z"/></g>
<g><path style="opacity:0.008" fill="#2c2c2b" d="M 557.5,242.5 C 558.833,243.167 558.833,243.167 557.5,242.5 Z"/></g>
<g><path style="opacity:0.004" fill="#2d2e2d" d="M 561.5,242.5 C 562.833,243.167 562.833,243.167 561.5,242.5 Z"/></g>
<g><path style="opacity:0.004" fill="#2f2f2e" d="M 569.5,242.5 C 570.833,243.167 570.833,243.167 569.5,242.5 Z"/></g>
<g><path style="opacity:0.004" fill="#2f302c" d="M 593.5,242.5 C 594.833,243.167 594.833,243.167 593.5,242.5 Z"/></g>
<g><path style="opacity:0.004" fill="#2d2e2f" d="M 600.5,242.5 C 601.833,243.167 601.833,243.167 600.5,242.5 Z"/></g>
<g><path style="opacity:0.012" fill="#2e302d" d="M 617.5,242.5 C 618.833,243.167 618.833,243.167 617.5,242.5 Z"/></g>
<g><path style="opacity:0.008" fill="#2f2f30" d="M 622.5,242.5 C 623.833,243.167 623.833,243.167 622.5,242.5 Z"/></g>
<g><path style="opacity:0.008" fill="#313131" d="M 386.5,243.5 C 387.363,242.537 388.03,242.537 388.5,243.5C 387.743,244.773 387.077,244.773 386.5,243.5 Z"/></g>
<g><path style="opacity:0.655" fill="#343435" d="M 497.5,243.5 C 497.389,244.117 497.056,244.617 496.5,245C 462.168,245.5 427.835,245.667 393.5,245.5C 428.039,244.82 462.706,244.154 497.5,243.5 Z"/></g>
<g><path style="opacity:0.646" fill="#383839" d="M 525.5,191.5 C 525.5,209.167 525.5,226.833 525.5,244.5C 553.074,244.828 580.574,244.495 608,243.5C 614.599,244.15 621.099,244.816 627.5,245.5C 593.167,245.5 558.833,245.5 524.5,245.5C 524.17,227.326 524.503,209.326 525.5,191.5 Z"/></g>
<g><path style="opacity:0.004" fill="#2e2f2e" d="M 638.5,244.5 C 639.833,245.167 639.833,245.167 638.5,244.5 Z"/></g>
<g><path style="opacity:0.004" fill="#2f3030" d="M 379.5,245.5 C 380.833,246.167 380.833,246.167 379.5,245.5 Z"/></g>
<g><path style="opacity:0.012" fill="#323230" d="M 361.5,248.5 C 362.833,249.167 362.833,249.167 361.5,248.5 Z"/></g>
<g><path style="opacity:0.012" fill="#2f3133" d="M 368.5,248.5 C 369.833,249.167 369.833,249.167 368.5,248.5 Z"/></g>
<g><path style="opacity:0.008" fill="#2b2f2b" d="M 651.5,248.5 C 652.833,249.167 652.833,249.167 651.5,248.5 Z"/></g>
<g><path style="opacity:0.016" fill="#2f312f" d="M 366.5,249.5 C 367.833,250.167 367.833,250.167 366.5,249.5 Z"/></g>
<g><path style="opacity:0.004" fill="#303032" d="M 359.5,250.5 C 360.833,251.167 360.833,251.167 359.5,250.5 Z"/></g>
<g><path style="opacity:0.008" fill="#313130" d="M 361.5,250.5 C 362.833,251.167 362.833,251.167 361.5,250.5 Z"/></g>
<g><path style="opacity:0.016" fill="#2e312d" d="M 657.5,250.5 C 658.833,251.167 658.833,251.167 657.5,250.5 Z"/></g>
<g><path style="opacity:0.004" fill="#2f2e30" d="M 354.5,255.5 C 355.833,256.167 355.833,256.167 354.5,255.5 Z"/></g>
<g><path style="opacity:0.02" fill="#2d2e2d" d="M 665.5,256.5 C 665.897,255.475 666.563,255.308 667.5,256C 666.906,256.464 666.239,256.631 665.5,256.5 Z"/></g>
<g><path style="opacity:0.008" fill="#2f3131" d="M 350.5,257.5 C 351.833,258.167 351.833,258.167 350.5,257.5 Z"/></g>
<g><path style="opacity:0.008" fill="#2d2f2f" d="M 347.5,259.5 C 348.833,260.167 348.833,260.167 347.5,259.5 Z"/></g>
<g><path style="opacity:0.004" fill="#303030" d="M 336.5,263.5 C 337.525,263.897 337.692,264.563 337,265.5C 336.536,264.906 336.369,264.239 336.5,263.5 Z"/></g>
<g><path style="opacity:0.004" fill="#353538" d="M 344.5,264.5 C 343.475,264.103 343.308,263.437 344,262.5C 344.464,263.094 344.631,263.761 344.5,264.5 Z"/></g>
<g><path style="opacity:0.004" fill="#2b2b2a" d="M 677.5,263.5 C 678.833,264.167 678.833,264.167 677.5,263.5 Z"/></g>
<g><path style="opacity:0.004" fill="#313131" d="M 341.5,266.5 C 340.833,266.5 340.5,266.833 340.5,267.5C 339.957,267.44 339.624,267.107 339.5,266.5C 340.257,265.227 340.923,265.227 341.5,266.5 Z"/></g>
<g><path style="opacity:0.008" fill="#303130" d="M 331.5,271.5 C 332.833,272.167 332.833,272.167 331.5,271.5 Z"/></g>
<g><path style="opacity:0.004" fill="#3b3c3d" d="M 329.5,279.5 C 329.068,280.71 328.401,281.71 327.5,282.5C 327.343,281.127 327.51,279.793 328,278.5C 328.383,279.056 328.883,279.389 329.5,279.5 Z"/></g>
<g><path style="opacity:0.004" fill="#2f2d2d" d="M 696.5,279.5 C 697.833,280.167 697.833,280.167 696.5,279.5 Z"/></g>
<g><path style="opacity:0.004" fill="#30302f" d="M 320.5,280.5 C 321.833,281.167 321.833,281.167 320.5,280.5 Z"/></g>
<g><path style="opacity:0.004" fill="#2c2d29" d="M 696.5,281.5 C 697.833,282.167 697.833,282.167 696.5,281.5 Z"/></g>
<g><path style="opacity:0.008" fill="#2e2d2d" d="M 699.5,282.5 C 700.833,283.167 700.833,283.167 699.5,282.5 Z"/></g>
<g><path style="opacity:0.004" fill="#2f2d2e" d="M 701.5,282.5 C 702.833,283.167 702.833,283.167 701.5,282.5 Z"/></g>
<g><path style="opacity:0.012" fill="#303031" d="M 319.5,284.5 C 320.833,285.167 320.833,285.167 319.5,284.5 Z"/></g>
<g><path style="opacity:0.004" fill="#2e312e" d="M 699.5,285.5 C 700.833,286.167 700.833,286.167 699.5,285.5 Z"/></g>
<g><path style="opacity:0.012" fill="#2e3130" d="M 320.5,287.5 C 321.833,288.167 321.833,288.167 320.5,287.5 Z"/></g>
<g><path style="opacity:0.004" fill="#303131" d="M 320.5,288.5 C 319.833,289.167 319.833,289.167 320.5,288.5 Z"/></g>
<g><path style="opacity:0.01" fill="#2d2d2d" d="M 702.5,291.5 C 702.369,290.761 702.536,290.094 703,289.5C 703.692,290.437 703.525,291.103 702.5,291.5 Z"/></g>
<g><path style="opacity:0.008" fill="#2e312f" d="M 312.5,296.5 C 313.833,297.167 313.833,297.167 312.5,296.5 Z"/></g>
<g><path style="opacity:0.004" fill="#2e2f2f" d="M 313.5,300.5 C 314.833,301.167 314.833,301.167 313.5,300.5 Z"/></g>
<g><path style="opacity:0.004" fill="#2d302d" d="M 311.5,301.5 C 312.833,302.167 312.833,302.167 311.5,301.5 Z"/></g>
<g><path style="opacity:0.008" fill="#2f302f" d="M 709.5,303.5 C 710.833,304.167 710.833,304.167 709.5,303.5 Z"/></g>
<g><path style="opacity:0.008" fill="#2f2f2f" d="M 311.5,306.5 C 312.833,307.167 312.833,307.167 311.5,306.5 Z"/></g>
<g><path style="opacity:0.008" fill="#2d2b2b" d="M 710.5,305.5 C 711.525,305.897 711.692,306.563 711,307.5C 710.536,306.906 710.369,306.239 710.5,305.5 Z"/></g>
<g><path style="opacity:0.991" fill="#121212" d="M 709.5,308.5 C 711.755,313.845 713.255,319.512 714,325.5C 714.667,366.833 714.667,408.167 714,449.5C 713.61,452.104 712.776,454.438 711.5,456.5C 710.861,455.903 710.528,455.07 710.5,454C 711,451.5 711.5,449 712,446.5C 712.667,406.833 712.667,367.167 712,327.5C 711.048,321.788 709.881,316.121 708.5,310.5C 708.543,309.584 708.876,308.917 709.5,308.5 Z"/></g>
<g><path style="opacity:0.992" fill="#121212" d="M 311.5,316.5 C 311.38,360.313 311.547,404.313 312,448.5C 313.08,451.614 313.246,454.614 312.5,457.5C 310.125,452.911 309.125,447.911 309.5,442.5C 309.5,436.5 309.5,430.5 309.5,424.5C 309.5,424.167 309.5,423.833 309.5,423.5C 309.5,418.833 309.5,414.167 309.5,409.5C 309.5,409.167 309.5,408.833 309.5,408.5C 309.5,405.5 309.5,402.5 309.5,399.5C 308.74,392.904 308.406,386.238 308.5,379.5C 308.5,379.167 308.5,378.833 308.5,378.5C 308.499,374.29 308.832,369.957 309.5,365.5C 309.5,363.167 309.5,360.833 309.5,358.5C 308.789,350.536 308.456,342.536 308.5,334.5C 309.062,328.307 310.062,322.307 311.5,316.5 Z"/></g>
<g><path style="opacity:0.004" fill="#2b2c2b" d="M 714.5,320.5 C 715.833,321.167 715.833,321.167 714.5,320.5 Z"/></g>
<g><path style="opacity:0.008" fill="#2e2e30" d="M 307.5,321.5 C 308.833,322.167 308.833,322.167 307.5,321.5 Z"/></g>
<g><path style="opacity:0.008" fill="#2b2e2c" d="M 307.5,326.5 C 308.833,327.167 308.833,327.167 307.5,326.5 Z"/></g>
<g><path style="opacity:0.004" fill="#2b2a2b" d="M 715.5,330.5 C 715.897,329.475 716.563,329.308 717.5,330C 716.906,330.464 716.239,330.631 715.5,330.5 Z"/></g>
<g><path style="opacity:0.012" fill="#313331" d="M 277.5,335.5 C 278.833,336.167 278.833,336.167 277.5,335.5 Z"/></g>
<g><path style="opacity:0.004" fill="#272928" d="M 742.5,335.5 C 743.833,336.167 743.833,336.167 742.5,335.5 Z"/></g>
<g><path style="opacity:0.008" fill="#2f3130" d="M 744.5,335.5 C 745.833,336.167 745.833,336.167 744.5,335.5 Z"/></g>
<g><path style="opacity:0.004" fill="#2b2d2b" d="M 720.5,336.5 C 721.833,337.167 721.833,337.167 720.5,336.5 Z"/></g>
<g><path style="opacity:0.004" fill="#2d2c2b" d="M 723.5,337.5 C 722.833,336.167 722.833,336.167 723.5,337.5 Z"/></g>
<g><path style="opacity:0.008" fill="#2f302e" d="M 747.5,336.5 C 748.833,337.167 748.833,337.167 747.5,336.5 Z"/></g>
<g><path style="opacity:0.004" fill="#2d2d2c" d="M 723.5,337.5 C 724.833,338.167 724.833,338.167 723.5,337.5 Z"/></g>
<g><path style="opacity:0.004" fill="#313132" d="M 755.5,337.5 C 756.833,338.167 756.833,338.167 755.5,337.5 Z"/></g>
<g><path style="opacity:0.997" fill="#040505" d="M 295.5,338.5 C 295.5,367.5 295.5,396.5 295.5,425.5C 294.791,426.404 293.791,426.737 292.5,426.5C 289.833,426.5 287.167,426.5 284.5,426.5C 282.5,426.5 280.5,426.5 278.5,426.5C 277.833,425.833 277.167,425.167 276.5,424.5C 282.29,424.279 288.29,424.279 294.5,424.5C 294.169,395.662 294.502,366.995 295.5,338.5 Z"/></g>
<g><path style="opacity:0.004" fill="#2a2a2a" d="M 306.5,339.5 C 307.833,340.167 307.833,340.167 306.5,339.5 Z"/></g>
<g><path style="opacity:0.99" fill="#161717" d="M 746.5,424.5 C 742.493,426.372 738.16,427.372 733.5,427.5C 730.747,427.647 728.247,426.98 726,425.5C 725.17,396.33 725.336,367.33 726.5,338.5C 729.408,337.431 732.408,337.264 735.5,338C 732.905,338.226 730.405,338.726 728,339.5C 727.333,367.5 727.333,395.5 728,423.5C 734.282,424.243 740.448,424.576 746.5,424.5 Z"/></g>
<g><path style="opacity:0.004" fill="#2b2c2a" d="M 722.5,340.5 C 723.833,341.167 723.833,341.167 722.5,340.5 Z"/></g>
<g><path style="opacity:0.998" fill="#121315" d="M 742.5,336.5 C 745.766,338.048 749.099,339.715 752.5,341.5C 754.925,344.589 756.925,347.922 758.5,351.5C 757.35,350.15 756.683,350.316 756.5,352C 757.771,373.414 757.771,394.581 756.5,415.5C 754.417,419.918 751.084,422.918 746.5,424.5C 740.448,424.576 734.282,424.243 728,423.5C 727.333,395.5 727.333,367.5 728,339.5C 730.405,338.726 732.905,338.226 735.5,338C 732.408,337.264 729.408,337.431 726.5,338.5C 725.913,337.233 725.913,336.233 726.5,335.5C 731.772,335.245 737.105,335.579 742.5,336.5 Z"/></g>
<g><path style="opacity:0.008" fill="#30312f" d="M 752.5,340.5 C 753.833,341.167 753.833,341.167 752.5,340.5 Z"/></g>
<g><path style="opacity:0.006" fill="#28292a" d="M 723.5,343.5 C 724.573,344.251 724.74,345.251 724,346.5C 723.517,345.552 723.351,344.552 723.5,343.5 Z"/></g>
<g><path style="opacity:0.998" fill="#121415" d="M 295.5,337.5 C 295.5,337.833 295.5,338.167 295.5,338.5C 294.502,366.995 294.169,395.662 294.5,424.5C 288.29,424.279 282.29,424.279 276.5,424.5C 274.716,424.107 273.05,423.441 271.5,422.5C 270.833,421.167 269.833,420.167 268.5,419.5C 266.404,416.738 264.738,413.738 263.5,410.5C 264.289,410.217 264.956,409.717 265.5,409C 264.564,389.375 264.23,369.875 264.5,350.5C 269.197,341.166 276.864,336.166 287.5,335.5C 290.191,335.411 292.857,336.078 295.5,337.5 Z"/></g>
<g><path style="opacity:0.004" fill="#292a2b" d="M 306.5,348.5 C 307.833,349.167 307.833,349.167 306.5,348.5 Z"/></g>
<g><path style="opacity:0.016" fill="#28292a" d="M 723.5,347.5 C 724.598,348.601 724.765,349.934 724,351.5C 723.51,350.207 723.343,348.873 723.5,347.5 Z"/></g>
<g><path style="opacity:0.004" fill="#252625" d="M 715.5,349.5 C 716.833,350.167 716.833,350.167 715.5,349.5 Z"/></g>
<g><path style="opacity:0.992" fill="#101111" d="M 264.5,350.5 C 264.23,369.875 264.564,389.375 265.5,409C 264.956,409.717 264.289,410.217 263.5,410.5C 262.159,406.164 261.826,401.831 262.5,397.5C 262.5,396.833 262.5,396.167 262.5,395.5C 261.904,391.917 261.904,387.917 262.5,383.5C 262.5,383.167 262.5,382.833 262.5,382.5C 262.5,381.833 262.167,381.5 261.5,381.5C 261.366,379.708 261.699,378.042 262.5,376.5C 262.5,375.833 262.5,375.167 262.5,374.5C 262.5,372.167 262.5,369.833 262.5,367.5C 262.5,365.5 262.5,363.5 262.5,361.5C 262.389,360.883 262.056,360.383 261.5,360C 262.133,356.633 263.133,353.466 264.5,350.5 Z"/></g>
<g><path style="opacity:0.99" fill="#181818" d="M 758.5,351.5 C 759.06,353.801 759.56,356.134 760,358.5C 760.667,374.167 760.667,389.833 760,405.5C 759.698,409.245 758.531,412.578 756.5,415.5C 757.771,394.581 757.771,373.414 756.5,352C 756.683,350.316 757.35,350.15 758.5,351.5 Z"/></g>
<g><path style="opacity:0.004" fill="#292b2c" d="M 303.5,352.5 C 304.833,353.167 304.833,353.167 303.5,352.5 Z"/></g>
<g><path style="opacity:0.005" fill="#292929" d="M 723.5,356.5 C 723.351,355.448 723.517,354.448 724,353.5C 724.74,354.749 724.573,355.749 723.5,356.5 Z"/></g>
<g><path style="opacity:0.012" fill="#292a2a" d="M 307.5,357.5 C 306.833,356.167 306.833,356.167 307.5,357.5 Z"/></g>
<g><path style="opacity:0.004" fill="#272929" d="M 723.5,356.5 C 723.5,356.833 723.5,357.167 723.5,357.5C 722.83,357.019 722.83,356.685 723.5,356.5 Z"/></g>
<g><path style="opacity:0.004" fill="#252626" d="M 307.5,357.5 C 308.167,357.5 308.5,357.833 308.5,358.5C 308.167,358.167 307.833,357.833 307.5,357.5 Z"/></g>
<g><path style="opacity:0.011" fill="#282828" d="M 723.5,357.5 C 724.613,358.946 724.78,360.613 724,362.5C 723.506,360.866 723.34,359.199 723.5,357.5 Z"/></g>
<g><path style="opacity:0.588" fill="#262829" d="M 295.5,337.5 C 296.171,363.902 296.838,390.402 297.5,417C 296.872,419.939 296.205,422.772 295.5,425.5C 295.5,396.5 295.5,367.5 295.5,338.5C 295.5,338.167 295.5,337.833 295.5,337.5 Z"/></g>
<g><path style="opacity:0.004" fill="#272828" d="M 715.5,358.5 C 716.833,359.167 716.833,359.167 715.5,358.5 Z"/></g>
<g><path style="opacity:0.004" fill="#333533" d="M 259.5,360.5 C 260.833,361.167 260.833,361.167 259.5,360.5 Z"/></g>
<g><path style="opacity:0.004" fill="#262728" d="M 719.5,360.5 C 720.833,361.167 720.833,361.167 719.5,360.5 Z"/></g>
<g><path style="opacity:0.01" fill="#282829" d="M 456.5,362.5 C 457.782,363.708 457.782,365.042 456.5,366.5C 456.094,365.443 456.094,364.109 456.5,362.5 Z"/></g>
<g><path style="opacity:0.012" fill="#353535" d="M 308.5,358.5 C 308.833,358.5 309.167,358.5 309.5,358.5C 309.5,360.833 309.5,363.167 309.5,365.5C 308.778,365.082 308.278,364.416 308,363.5C 307.444,365.595 306.944,365.762 306.5,364C 307.885,362.403 308.551,360.57 308.5,358.5 Z"/></g>
<g><path style="opacity:0.008" fill="#272927" d="M 723.5,363.5 C 724.833,364.167 724.833,364.167 723.5,363.5 Z"/></g>
<g><path style="opacity:0.02" fill="#494a4a" d="M 262.5,361.5 C 262.5,363.5 262.5,365.5 262.5,367.5C 261.761,367.631 261.094,367.464 260.5,367C 260.602,365.208 261.268,363.375 262.5,361.5 Z"/></g>
<g><path style="opacity:0.008" fill="#272728" d="M 723.5,365.5 C 724.622,367.288 724.789,369.288 724,371.5C 723.505,369.527 723.338,367.527 723.5,365.5 Z"/></g>
<g><path style="opacity:0.004" fill="#2d2f2f" d="M 260.5,368.5 C 261.833,369.167 261.833,369.167 260.5,368.5 Z"/></g>
<g><path style="opacity:0.008" fill="#262726" d="M 715.5,368.5 C 716.833,369.167 716.833,369.167 715.5,368.5 Z"/></g>
<g><path style="opacity:0.004" fill="#292928" d="M 297.5,370.5 C 298.833,371.167 298.833,371.167 297.5,370.5 Z"/></g>
<g><path style="opacity:0.004" fill="#272628" d="M 715.5,372.5 C 716.573,373.251 716.74,374.251 716,375.5C 715.517,374.552 715.351,373.552 715.5,372.5 Z"/></g>
<g><path style="opacity:0.006" fill="#272728" d="M 723.5,372.5 C 724.525,372.897 724.692,373.563 724,374.5C 723.536,373.906 723.369,373.239 723.5,372.5 Z"/></g>
<g><path style="opacity:0.018" fill="#404143" d="M 262.5,374.5 C 262.5,375.167 262.5,375.833 262.5,376.5C 258.764,374.19 258.764,373.523 262.5,374.5 Z"/></g>
<g><path style="opacity:0.012" fill="#272526" d="M 723.5,375.5 C 724.833,376.167 724.833,376.167 723.5,375.5 Z"/></g>
<g><path style="opacity:0.976" fill="#272829" d="M 458.5,372.5 C 458.829,375.228 458.163,377.562 456.5,379.5C 456.721,376.933 457.388,374.599 458.5,372.5 Z"/></g>
<g><path style="opacity:0.008" fill="#242728" d="M 308.5,378.5 C 307.833,377.167 307.833,377.167 308.5,378.5 Z"/></g>
<g><path style="opacity:0.011" fill="#282828" d="M 723.5,377.5 C 724.613,378.946 724.78,380.613 724,382.5C 723.506,380.866 723.34,379.199 723.5,377.5 Z"/></g>
<g><path style="opacity:0.012" fill="#282a27" d="M 308.5,379.5 C 307.833,380.167 307.833,380.167 308.5,379.5 Z"/></g>
<g><path style="opacity:0.004" fill="#333436" d="M 261.5,381.5 C 262.167,381.5 262.5,381.833 262.5,382.5C 262.5,382.833 262.5,383.167 262.5,383.5C 259.147,383.655 258.814,382.988 261.5,381.5 Z"/></g>
<g><path style="opacity:0.004" fill="#252526" d="M 715.5,382.5 C 716.833,383.167 716.833,383.167 715.5,382.5 Z"/></g>
<g><path style="opacity:0.004" fill="#262628" d="M 723.5,383.5 C 724.833,384.167 724.833,384.167 723.5,383.5 Z"/></g>
<g><path style="opacity:0.004" fill="#2d3230" d="M 259.5,390.5 C 260.833,391.167 260.833,391.167 259.5,390.5 Z"/></g>
<g><path style="opacity:0.004" fill="#292b2d" d="M 306.5,391.5 C 307.833,392.167 307.833,392.167 306.5,391.5 Z"/></g>
<g><path style="opacity:0.006" fill="#272728" d="M 723.5,385.5 C 724.641,388.64 724.808,391.973 724,395.5C 723.502,392.183 723.335,388.85 723.5,385.5 Z"/></g>
<g><path style="opacity:0.008" fill="#2f3030" d="M 259.5,394.5 C 260.833,395.167 260.833,395.167 259.5,394.5 Z"/></g>
<g><path style="opacity:0.004" fill="#232526" d="M 715.5,394.5 C 716.833,395.167 716.833,395.167 715.5,394.5 Z"/></g>
<g><path style="opacity:0.004" fill="#484a49" d="M 262.5,395.5 C 262.5,396.167 262.5,396.833 262.5,397.5C 261.833,397.5 261.167,397.5 260.5,397.5C 260.833,396.5 261.5,395.833 262.5,395.5 Z"/></g>
<g><path style="opacity:0.004" fill="#292b2c" d="M 306.5,395.5 C 307.833,396.167 307.833,396.167 306.5,395.5 Z"/></g>
<g><path style="opacity:0.004" fill="#303131" d="M 260.5,397.5 C 260.631,398.239 260.464,398.906 260,399.5C 259.308,398.563 259.475,397.897 260.5,397.5 Z"/></g>
<g><path style="opacity:0.004" fill="#252525" d="M 308.5,399.5 C 307.833,398.167 307.833,398.167 308.5,399.5 Z"/></g>
<g><path style="opacity:0.004" fill="#262626" d="M 715.5,398.5 C 716.833,399.167 716.833,399.167 715.5,398.5 Z"/></g>
<g><path style="opacity:0.013" fill="#262727" d="M 723.5,396.5 C 724.643,399.976 724.81,403.642 724,407.5C 723.501,403.848 723.335,400.182 723.5,396.5 Z"/></g>
<g><path style="opacity:0.008" fill="#2d312f" d="M 260.5,404.5 C 261.833,405.167 261.833,405.167 260.5,404.5 Z"/></g>
<g><path style="opacity:0.008" fill="#454647" d="M 308.5,399.5 C 308.833,399.5 309.167,399.5 309.5,399.5C 309.5,402.5 309.5,405.5 309.5,408.5C 307.622,405.715 307.289,402.715 308.5,399.5 Z"/></g>
<g><path style="opacity:0.004" fill="#313233" d="M 260.5,406.5 C 261.833,407.167 261.833,407.167 260.5,406.5 Z"/></g>
<g><path style="opacity:0.004" fill="#2c2e2e" d="M 307.5,409.5 C 306.833,408.167 306.833,408.167 307.5,409.5 Z"/></g>
<g><path style="opacity:0.01" fill="#282629" d="M 723.5,408.5 C 724.525,408.897 724.692,409.563 724,410.5C 723.536,409.906 723.369,409.239 723.5,408.5 Z"/></g>
<g><path style="opacity:0.004" fill="#2c2a2a" d="M 303.5,410.5 C 304.833,411.167 304.833,411.167 303.5,410.5 Z"/></g>
<g><path style="opacity:0.004" fill="#2c2a2a" d="M 306.5,412.5 C 305.833,411.167 305.833,411.167 306.5,412.5 Z"/></g>
<g><path style="opacity:0.01" fill="#27272a" d="M 723.5,411.5 C 724.598,412.601 724.765,413.934 724,415.5C 723.51,414.207 723.343,412.873 723.5,411.5 Z"/></g>
<g><path style="opacity:0.008" fill="#2d2c2d" d="M 306.5,412.5 C 307.833,413.167 307.833,413.167 306.5,412.5 Z"/></g>
<g><path style="opacity:0.013" fill="#4b4a4a" d="M 307.5,409.5 C 308.167,409.5 308.833,409.5 309.5,409.5C 309.5,414.167 309.5,418.833 309.5,423.5C 308.784,418.936 308.117,414.269 307.5,409.5 Z"/></g>
<g><path style="opacity:0.012" fill="#343735" d="M 264.5,416.5 C 265.833,417.167 265.833,417.167 264.5,416.5 Z"/></g>
<g><path style="opacity:0.004" fill="#262829" d="M 723.5,417.5 C 724.833,418.167 724.833,418.167 723.5,417.5 Z"/></g>
<g><path style="opacity:0.004" fill="#353535" d="M 268.5,419.5 C 268.728,421.355 268.061,422.188 266.5,422C 267.066,421.005 267.733,420.172 268.5,419.5 Z"/></g>
<g><path style="opacity:0.006" fill="#282929" d="M 723.5,419.5 C 724.598,420.601 724.765,421.934 724,423.5C 722.666,422.122 722.499,420.789 723.5,419.5 Z"/></g>
<g><path style="opacity:0.004" fill="#2d2e2d" d="M 306.5,420.5 C 307.833,421.167 307.833,421.167 306.5,420.5 Z"/></g>
<g><path style="opacity:0.004" fill="#333432" d="M 875.5,421.5 C 876.833,422.167 876.833,422.167 875.5,421.5 Z"/></g>
<g><path style="opacity:0.008" fill="#333335" d="M 271.5,422.5 C 270.833,423.167 270.833,423.167 271.5,422.5 Z"/></g>
<g><path style="opacity:0.004" fill="#262726" d="M 715.5,424.5 C 716.833,425.167 716.833,425.167 715.5,424.5 Z"/></g>
<g><path style="opacity:0.008" fill="#323534" d="M 274.5,425.5 C 275.833,426.167 275.833,426.167 274.5,425.5 Z"/></g>
<g><path style="opacity:0.004" fill="#343432" d="M 278.5,426.5 C 278.103,427.525 277.437,427.692 276.5,427C 277.094,426.536 277.761,426.369 278.5,426.5 Z"/></g>
<g><path style="opacity:0.086" fill="#474846" d="M 284.5,426.5 C 287.167,426.5 289.833,426.5 292.5,426.5C 290.107,427.21 287.607,427.877 285,428.5C 284.536,427.906 284.369,427.239 284.5,426.5 Z"/></g>
<g><path style="opacity:0.004" fill="#303030" d="M 744.5,426.5 C 745.833,427.167 745.833,427.167 744.5,426.5 Z"/></g>
<g><path style="opacity:0.008" fill="#333431" d="M 742.5,428.5 C 741.833,427.167 741.833,427.167 742.5,428.5 Z"/></g>
<g><path style="opacity:0.012" fill="#313230" d="M 288.5,428.5 C 289.833,429.167 289.833,429.167 288.5,428.5 Z"/></g>
<g><path style="opacity:0.008" fill="#2d2d2d" d="M 306.5,428.5 C 307.833,429.167 307.833,429.167 306.5,428.5 Z"/></g>
<g><path style="opacity:0.016" fill="#2c2f2e" d="M 730.5,428.5 C 731.833,429.167 731.833,429.167 730.5,428.5 Z"/></g>
<g><path style="opacity:0.008" fill="#302f2f" d="M 735.5,429.5 C 735.897,428.475 736.563,428.308 737.5,429C 736.906,429.464 736.239,429.631 735.5,429.5 Z"/></g>
<g><path style="opacity:0.012" fill="#303131" d="M 738.5,428.5 C 739.833,429.167 739.833,429.167 738.5,428.5 Z"/></g>
<g><path style="opacity:0.008" fill="#323332" d="M 742.5,428.5 C 743.833,429.167 743.833,429.167 742.5,428.5 Z"/></g>
<g><path style="opacity:0.004" fill="#272728" d="M 715.5,429.5 C 716.525,429.897 716.692,430.563 716,431.5C 715.536,430.906 715.369,430.239 715.5,429.5 Z"/></g>
<g><path style="opacity:0.006" fill="#2e2f2f" d="M 307.5,433.5 C 306.475,433.103 306.308,432.437 307,431.5C 307.464,432.094 307.631,432.761 307.5,433.5 Z"/></g>
<g><path style="opacity:0.004" fill="#2c302e" d="M 307.5,438.5 C 306.833,439.167 306.833,439.167 307.5,438.5 Z"/></g>
<g><path style="opacity:0.016" fill="#484848" d="M 309.5,424.5 C 309.5,430.5 309.5,436.5 309.5,442.5C 308.833,441.167 308.167,439.833 307.5,438.5C 308.833,436.833 308.833,435.167 307.5,433.5C 308.167,430.5 308.833,427.5 309.5,424.5 Z"/></g>
<g><path style="opacity:0.008" fill="#2d2e2f" d="M 307.5,443.5 C 308.833,444.167 308.833,444.167 307.5,443.5 Z"/></g>
<g><path style="opacity:0.012" fill="#2c2e2d" d="M 715.5,446.5 C 716.833,447.167 716.833,447.167 715.5,446.5 Z"/></g>
<g><path style="opacity:0.004" fill="#303031" d="M 303.5,448.5 C 304.833,449.167 304.833,449.167 303.5,448.5 Z"/></g>
<g><path style="opacity:0.004" fill="#2d302f" d="M 307.5,448.5 C 308.833,449.167 308.833,449.167 307.5,448.5 Z"/></g>
<g><path style="opacity:0.004" fill="#303232" d="M 308.5,451.5 C 307.833,450.167 307.833,450.167 308.5,451.5 Z"/></g>
<g><path style="opacity:0.004" fill="#2c2f2b" d="M 717.5,450.5 C 718.833,451.167 718.833,451.167 717.5,450.5 Z"/></g>
<g><path style="opacity:0.01" fill="#2e2f2e" d="M 308.5,451.5 C 309.833,452.167 309.833,452.833 308.5,453.5C 308.5,452.833 308.5,452.167 308.5,451.5 Z"/></g>
<g><path style="opacity:0.004" fill="#2d2e2e" d="M 714.5,452.5 C 715.833,453.167 715.833,453.167 714.5,452.5 Z"/></g>
<g><path style="opacity:0.004" fill="#2f3232" d="M 308.5,453.5 C 307.833,454.167 307.833,454.167 308.5,453.5 Z"/></g>
<g><path style="opacity:0.012" fill="#29282a" d="M 710.5,462.5 C 711.833,463.167 711.833,463.167 710.5,462.5 Z"/></g>
<g><path style="opacity:0.008" fill="#2c2c2e" d="M 709.5,464.5 C 710.167,464.5 710.5,464.833 710.5,465.5C 710.167,465.167 709.833,464.833 709.5,464.5 Z"/></g>
<g><path style="opacity:0.008" fill="#2e3130" d="M 313.5,465.5 C 312.833,466.167 312.833,466.167 313.5,465.5 Z"/></g>
<g><path style="opacity:0.016" fill="#2f2f2e" d="M 710.5,465.5 C 711.833,466.167 711.833,466.167 710.5,465.5 Z"/></g>
<g><path style="opacity:0.004" fill="#2d2f2e" d="M 708.5,468.5 C 709.833,469.167 709.833,469.167 708.5,468.5 Z"/></g>
<g><path style="opacity:0.008" fill="#2d302f" d="M 315.5,469.5 C 316.833,470.167 316.833,470.167 315.5,469.5 Z"/></g>
<g><path style="opacity:0.012" fill="#2b2b2e" d="M 320.5,473.5 C 319.833,474.167 319.833,474.167 320.5,473.5 Z"/></g>
<g><path style="opacity:0.996" fill="#171718" d="M 645.5,474.5 C 635.868,475.746 626.201,476.912 616.5,478C 616.833,478.333 617.167,478.667 617.5,479C 616.251,479.74 615.251,479.573 614.5,478.5C 599.841,479.907 585.174,481.24 570.5,482.5C 568.621,482.607 568.288,482.107 569.5,481C 595.734,477.108 622.067,474.442 648.5,473C 647.263,473.232 646.263,473.732 645.5,474.5 Z"/></g>
<g><path style="opacity:0.016" fill="#292d2a" d="M 702.5,474.5 C 703.833,475.167 703.833,475.167 702.5,474.5 Z"/></g>
<g><path style="opacity:0.004" fill="#2d2f2e" d="M 320.5,476.5 C 321.833,477.167 321.833,477.167 320.5,476.5 Z"/></g>
<g><path style="opacity:0.01" fill="#292a29" d="M 634.5,477.5 C 635.251,476.427 636.251,476.26 637.5,477C 636.648,478.728 635.648,478.895 634.5,477.5 Z"/></g>
<g><path style="opacity:0.008" fill="#2e2f2e" d="M 322.5,477.5 C 323.833,478.167 323.833,478.167 322.5,477.5 Z"/></g>
<g><path style="opacity:0.027" fill="#373939" d="M 647.5,474.5 C 648.484,476.598 648.151,478.598 646.5,480.5C 646.5,479.167 646.5,477.833 646.5,476.5C 647.338,476.158 647.672,475.492 647.5,474.5 Z"/></g>
<g><path style="opacity:0.004" fill="#2d2f2f" d="M 694.5,482.5 C 695.833,483.167 695.833,483.167 694.5,482.5 Z"/></g>
<g><path style="opacity:0.008" fill="#2e302e" d="M 328.5,484.5 C 329.833,485.167 329.833,485.167 328.5,484.5 Z"/></g>
<g><path style="opacity:0.008" fill="#2f2e2e" d="M 330.5,485.5 C 330.897,484.475 331.563,484.308 332.5,485C 331.906,485.464 331.239,485.631 330.5,485.5 Z"/></g>
<g><path style="opacity:0.004" fill="#2a2e2c" d="M 691.5,485.5 C 692.833,486.167 692.833,486.167 691.5,485.5 Z"/></g>
<g><path style="opacity:0.004" fill="#2e302c" d="M 331.5,486.5 C 332.833,487.167 332.833,487.167 331.5,486.5 Z"/></g>
<g><path style="opacity:0.004" fill="#2d2f2e" d="M 686.5,486.5 C 687.833,487.167 687.833,487.167 686.5,486.5 Z"/></g>
<g><path style="opacity:0.008" fill="#2d2c2a" d="M 678.5,489.5 C 679.833,490.167 679.833,490.167 678.5,489.5 Z"/></g>
<g><path style="opacity:0.008" fill="#2c2e2c" d="M 345.5,490.5 C 346.833,491.167 346.833,491.167 345.5,490.5 Z"/></g>
<g><path style="opacity:0.004" fill="#2b2c2a" d="M 673.5,490.5 C 674.833,491.167 674.833,491.167 673.5,490.5 Z"/></g>
<g><path style="opacity:0.004" fill="#2b2d2c" d="M 678.5,490.5 C 678.5,490.833 678.5,491.167 678.5,491.5C 677.83,491.019 677.83,490.685 678.5,490.5 Z"/></g>
<g><path style="opacity:0.004" fill="#2c2d29" d="M 678.5,491.5 C 679.833,492.167 679.833,492.167 678.5,491.5 Z"/></g>
<g><path style="opacity:0.025" fill="#3b3c3d" d="M 667.5,491.5 C 667.36,493.124 668.027,494.29 669.5,495C 668.584,495.278 667.918,495.778 667.5,496.5C 666.167,494.833 666.167,493.167 667.5,491.5 Z"/></g>
<g><path style="opacity:0.004" fill="#2e2b2d" d="M 670.5,493.5 C 671.833,494.167 671.833,494.167 670.5,493.5 Z"/></g>
<g><path style="opacity:0.004" fill="#2c2d2d" d="M 676.5,493.5 C 677.525,493.897 677.692,494.563 677,495.5C 676.536,494.906 676.369,494.239 676.5,493.5 Z"/></g>
<g><path style="opacity:0.004" fill="#2b2a2c" d="M 678.5,495.5 C 679.833,496.167 679.833,496.167 678.5,495.5 Z"/></g>
<g><path style="opacity:0.004" fill="#2e3030" d="M 319.5,496.5 C 320.833,497.167 320.833,497.167 319.5,496.5 Z"/></g>
<g><path style="opacity:0.004" fill="#2d302e" d="M 334.5,496.5 C 335.833,497.167 335.833,497.167 334.5,496.5 Z"/></g>
<g><path style="opacity:0.008" fill="#2e2d2e" d="M 692.5,496.5 C 693.525,496.897 693.692,497.563 693,498.5C 692.536,497.906 692.369,497.239 692.5,496.5 Z"/></g>
<g><path style="opacity:0.004" fill="#2e2f2e" d="M 323.5,497.5 C 324.833,498.167 324.833,498.167 323.5,497.5 Z"/></g>
<g><path style="opacity:0.004" fill="#2b2a2b" d="M 690.5,497.5 C 691.833,498.167 691.833,498.167 690.5,497.5 Z"/></g>
<g><path style="opacity:0.004" fill="#2f2f2f" d="M 323.5,499.5 C 324.833,500.167 324.833,500.167 323.5,499.5 Z"/></g>
<g><path style="opacity:0.004" fill="#2a2b2a" d="M 696.5,499.5 C 697.833,500.167 697.833,500.167 696.5,499.5 Z"/></g>
<g><path style="opacity:0.004" fill="#2b2b29" d="M 698.5,500.5 C 699.833,501.167 699.833,501.167 698.5,500.5 Z"/></g>
<g><path style="opacity:0.004" fill="#2c2c2c" d="M 700.5,500.5 C 701.833,501.167 701.833,501.167 700.5,500.5 Z"/></g>
<g><path style="opacity:0.004" fill="#2f332f" d="M 303.5,503.5 C 304.833,504.167 304.833,504.167 303.5,503.5 Z"/></g>
<g><path style="opacity:0.016" fill="#2f312f" d="M 310.5,504.5 C 311.833,505.167 311.833,505.167 310.5,504.5 Z"/></g>
<g><path style="opacity:0.008" fill="#2d2e2d" d="M 712.5,504.5 C 713.833,505.167 713.833,505.167 712.5,504.5 Z"/></g>
<g><path style="opacity:0.004" fill="#2d2e2d" d="M 714.5,507.5 C 713.833,506.167 713.833,506.167 714.5,507.5 Z"/></g>
<g><path style="opacity:0.012" fill="#2f2f30" d="M 303.5,506.5 C 304.525,506.897 304.692,507.563 304,508.5C 303.536,507.906 303.369,507.239 303.5,506.5 Z"/></g>
<g><path style="opacity:0.008" fill="#2a2b29" d="M 714.5,507.5 C 715.833,508.167 715.833,508.167 714.5,507.5 Z"/></g>
<g><path style="opacity:0.008" fill="#2c2e2d" d="M 304.5,510.5 C 303.833,509.167 303.833,509.167 304.5,510.5 Z"/></g>
<g><path style="opacity:0.004" fill="#2e2f2d" d="M 987.5,525.5 C 988.833,526.167 988.833,526.167 987.5,525.5 Z"/></g>
<g><path style="opacity:0.012" fill="#2f3132" d="M 281.5,530.5 C 280.833,529.167 280.833,529.167 281.5,530.5 Z"/></g>
<g><path style="opacity:0.004" fill="#2b2d2e" d="M 742.5,529.5 C 743.833,530.167 743.833,530.167 742.5,529.5 Z"/></g>
<g><path style="opacity:0.004" fill="#323332" d="M 275.5,533.5 C 276.833,534.167 276.833,534.167 275.5,533.5 Z"/></g>
<g><path style="opacity:0.004" fill="#333433" d="M 275.5,537.5 C 274.833,536.167 274.833,536.167 275.5,537.5 Z"/></g>
<g><path style="opacity:0.008" fill="#313233" d="M 271.5,537.5 C 272.833,538.167 272.833,538.167 271.5,537.5 Z"/></g>
<g><path style="opacity:0.004" fill="#323232" d="M 268.5,544.5 C 269.833,545.167 269.833,545.167 268.5,544.5 Z"/></g>
<g><path style="opacity:0.012" fill="#2c2f2e" d="M 753.5,544.5 C 754.833,545.167 754.833,545.167 753.5,544.5 Z"/></g>
<g><path style="opacity:0.004" fill="#323232" d="M 263.5,545.5 C 264.833,546.167 264.833,546.167 263.5,545.5 Z"/></g>
<g><path style="opacity:0.008" fill="#323433" d="M 265.5,546.5 C 266.833,547.167 266.833,547.167 265.5,546.5 Z"/></g>
<g><path style="opacity:0.008" fill="#303332" d="M 264.5,550.5 C 265.833,551.167 265.833,551.167 264.5,550.5 Z"/></g>
<g><path style="opacity:0.008" fill="#333434" d="M 264.5,556.5 C 263.833,555.167 263.833,555.167 264.5,556.5 Z"/></g>
<g><path style="opacity:0.855" fill="#28282b" d="M 571.5,561.5 C 570.92,563.749 569.587,565.415 567.5,566.5C 568.08,564.251 569.413,562.585 571.5,561.5 Z"/></g>
<g><path style="opacity:0.004" fill="#303130" d="M 259.5,566.5 C 260.833,567.167 260.833,567.167 259.5,566.5 Z"/></g>
<g><path style="opacity:0.004" fill="#2d2f2f" d="M 763.5,567.5 C 764.833,568.167 764.833,568.167 763.5,567.5 Z"/></g>
<g><path style="opacity:0.004" fill="#313230" d="M 255.5,568.5 C 256.833,569.167 256.833,569.167 255.5,568.5 Z"/></g>
<g><path style="opacity:0.004" fill="#2e2e2e" d="M 766.5,568.5 C 767.833,569.167 767.833,569.167 766.5,568.5 Z"/></g>
<g><path style="opacity:0.981" fill="#010101" d="M 623.5,575.5 C 613.5,575.5 603.5,575.5 593.5,575.5C 591.801,575.66 590.134,575.494 588.5,575C 602.806,573.057 617.14,573.057 631.5,575C 628.854,575.497 626.187,575.664 623.5,575.5 Z"/></g>
<g><path style="opacity:0.004" fill="#282a2a" d="M 764.5,573.5 C 765.833,574.167 765.833,574.167 764.5,573.5 Z"/></g>
<g><path style="opacity:0.004" fill="#323331" d="M 256.5,579.5 C 257.833,580.167 257.833,580.167 256.5,579.5 Z"/></g>
<g><path style="opacity:0.998" fill="#090909" d="M 259.5,579.5 C 259.4,636.656 259.566,693.989 260,751.5C 260.426,762.318 261.926,772.985 264.5,783.5C 264.457,784.416 264.124,785.083 263.5,785.5C 261.523,780.255 259.856,774.922 258.5,769.5C 258.5,766.167 258.5,762.833 258.5,759.5C 258.5,701.833 258.5,644.167 258.5,586.5C 258.198,583.941 258.532,581.607 259.5,579.5 Z"/></g>
<g><path style="opacity:0.008" fill="#2b2c2c" d="M 632.5,579.5 C 633.773,580.077 633.773,580.743 632.5,581.5C 631.537,581.03 631.537,580.363 632.5,579.5 Z"/></g>
<g><path style="opacity:0.992" fill="#0e0e0e" d="M 586.5,775.5 C 586.5,774.833 586.5,774.167 586.5,773.5C 589.115,774.291 591.782,774.957 594.5,775.5C 605.5,776.833 616.5,776.833 627.5,775.5C 630.016,775.245 632.35,774.411 634.5,773C 636.383,769.261 637.383,765.261 637.5,761C 637.199,753.451 637.199,745.951 637.5,738.5C 637.5,737.167 637.5,735.833 637.5,734.5C 637.567,733.041 637.234,731.708 636.5,730.5C 637.833,730.167 637.833,729.833 636.5,729.5C 637.641,727.451 637.641,725.451 636.5,723.5C 636.554,721.86 636.554,720.194 636.5,718.5C 637.833,718.167 637.833,717.833 636.5,717.5C 637.833,715.167 637.833,712.833 636.5,710.5C 637.833,710.167 637.833,709.833 636.5,709.5C 636.414,708.504 636.748,707.671 637.5,707C 636.484,706.481 635.818,705.647 635.5,704.5C 636.167,703.5 636.833,702.5 637.5,701.5C 637.219,691.412 637.219,681.412 637.5,671.5C 637.5,668.5 637.5,665.5 637.5,662.5C 637.5,661.5 637.5,660.5 637.5,659.5C 637.5,658.5 637.5,657.5 637.5,656.5C 637.5,654.833 637.5,653.167 637.5,651.5C 637.5,650.5 637.5,649.5 637.5,648.5C 637.238,645.129 636.905,641.795 636.5,638.5C 637.167,638.5 637.5,638.167 637.5,637.5C 637.5,634.5 637.5,631.5 637.5,628.5C 636.561,619.697 636.561,611.03 637.5,602.5C 637.5,601.167 637.5,599.833 637.5,598.5C 636.595,597.036 636.595,595.702 637.5,594.5C 637.5,593.167 637.5,591.833 637.5,590.5C 637.198,587.627 636.531,584.961 635.5,582.5C 635.5,581.5 635.5,580.5 635.5,579.5C 635.56,578.957 635.893,578.624 636.5,578.5C 637.584,579.665 638.417,580.998 639,582.5C 639.667,645.833 639.667,709.167 639,772.5C 638.667,772.167 638.333,771.833 638,771.5C 636.833,774 635,775.833 632.5,777C 617.833,777.667 603.167,777.667 588.5,777C 587.584,776.722 586.918,776.222 586.5,775.5 Z"/></g>
<g><path style="opacity:0.004" fill="#2c2d30" d="M 766.5,582.5 C 767.833,583.167 767.833,583.167 766.5,582.5 Z"/></g>
<g><path style="opacity:0.008" fill="#2f3132" d="M 256.5,583.5 C 257.833,584.167 257.833,584.167 256.5,583.5 Z"/></g>
<g><path style="opacity:0.998" fill="#010101" d="M 584.5,581.5 C 583.732,582.263 583.232,583.263 583,584.5C 582.333,645.5 582.333,706.5 583,767.5C 583.21,769.058 583.71,770.391 584.5,771.5C 585.167,772.167 585.833,772.833 586.5,773.5C 586.5,774.167 586.5,774.833 586.5,775.5C 583.812,774.976 582.312,773.309 582,770.5C 581.333,707.833 581.333,645.167 582,582.5C 582.987,578.233 583.821,577.9 584.5,581.5 Z"/></g>
<g><path style="opacity:0.998" fill="#1b1c1c" d="M 765.5,589.5 C 766.662,646.43 766.829,703.43 766,760.5C 765.778,765.412 764.945,770.079 763.5,774.5C 762.842,773.207 762.508,771.707 762.5,770C 763.118,763.844 763.618,757.677 764,751.5C 764.167,697.332 764.667,643.332 765.5,589.5 Z"/></g>
<g><path style="opacity:0.007" fill="#323332" d="M 255.5,591.5 C 256.573,592.251 256.74,593.251 256,594.5C 255.517,593.552 255.351,592.552 255.5,591.5 Z"/></g>
<g><path style="opacity:0.008" fill="#3a3a3a" d="M 637.5,590.5 C 637.5,591.833 637.5,593.167 637.5,594.5C 636.761,594.631 636.094,594.464 635.5,594C 636.085,592.698 636.751,591.531 637.5,590.5 Z"/></g>
<g><path style="opacity:0.008" fill="#2f3130" d="M 255.5,595.5 C 256.833,596.167 256.833,596.167 255.5,595.5 Z"/></g>
<g><path style="opacity:0.006" fill="#383837" d="M 637.5,598.5 C 637.5,599.833 637.5,601.167 637.5,602.5C 635.219,600.968 635.219,599.634 637.5,598.5 Z"/></g>
<g><path style="opacity:0.004" fill="#3e3e3d" d="M 494.5,600.5 C 494.5,600.833 494.5,601.167 494.5,601.5C 493.833,601.5 493.5,601.833 493.5,602.5C 492.167,602.5 490.833,602.5 489.5,602.5C 489.5,602.167 489.5,601.833 489.5,601.5C 491.216,601.371 492.883,601.038 494.5,600.5 Z"/></g>
<g><path style="opacity:0.012" fill="#2c2a2b" d="M 494.5,601.5 C 495.757,602.623 495.424,603.289 493.5,603.5C 493.5,603.167 493.5,602.833 493.5,602.5C 494.167,602.5 494.5,602.167 494.5,601.5 Z"/></g>
<g><path style="opacity:0.012" fill="#2e3232" d="M 255.5,608.5 C 256.833,609.167 256.833,609.167 255.5,608.5 Z"/></g>
<g><path style="opacity:0.012" fill="#303131" d="M 255.5,610.5 C 256.833,611.167 256.833,611.167 255.5,610.5 Z"/></g>
<g><path style="opacity:0.004" fill="#2f3231" d="M 255.5,612.5 C 256.833,613.167 256.833,613.167 255.5,612.5 Z"/></g>
<g><path style="opacity:0.006" fill="#2a2a2a" d="M 462.5,611.5 C 463.757,612.623 463.424,613.289 461.5,613.5C 461.5,613.167 461.5,612.833 461.5,612.5C 462.167,612.5 462.5,612.167 462.5,611.5 Z"/></g>
<g><path style="opacity:0.004" fill="#313132" d="M 255.5,614.5 C 256.613,615.946 256.78,617.613 256,619.5C 255.506,617.866 255.34,616.199 255.5,614.5 Z"/></g>
<g><path style="opacity:0.014" fill="#313232" d="M 255.5,623.5 C 256.598,624.601 256.765,625.934 256,627.5C 255.51,626.207 255.343,624.873 255.5,623.5 Z"/></g>
<g><path style="opacity:0.008" fill="#393a39" d="M 637.5,628.5 C 637.5,631.5 637.5,634.5 637.5,637.5C 637.167,637.5 636.833,637.5 636.5,637.5C 636.768,634.881 636.435,632.381 635.5,630C 636.044,629.283 636.711,628.783 637.5,628.5 Z"/></g>
<g><path style="opacity:0.008" fill="#2f3131" d="M 255.5,631.5 C 256.573,632.251 256.74,633.251 256,634.5C 255.517,633.552 255.351,632.552 255.5,631.5 Z"/></g>
<g><path style="opacity:0.004" fill="#303132" d="M 255.5,635.5 C 256.525,635.897 256.692,636.563 256,637.5C 255.536,636.906 255.369,636.239 255.5,635.5 Z"/></g>
<g><path style="opacity:0.994" fill="#191a1a" d="M 442.5,630.5 C 442.649,631.552 442.483,632.552 442,633.5C 439.597,635.305 437.93,637.638 437,640.5C 436.667,640.167 436.333,639.833 436,639.5C 428.412,647.755 420.745,655.422 413,662.5C 412.617,661.944 412.117,661.611 411.5,661.5C 412.5,660.167 413.5,658.833 414.5,657.5C 415.167,657.5 415.5,657.167 415.5,656.5C 417.833,654.833 419.833,652.833 421.5,650.5C 423.5,649.167 425.167,647.5 426.5,645.5C 429.527,643.14 432.194,640.473 434.5,637.5C 436.296,636.207 437.963,634.707 439.5,633C 439.167,632.667 438.833,632.333 438.5,632C 439.901,631.59 441.234,631.09 442.5,630.5 Z"/></g>
<g><path style="opacity:0.99" fill="#070808" d="M 558.5,643.5 C 558.167,643.5 557.833,643.5 557.5,643.5C 553.702,642.517 549.702,642.183 545.5,642.5C 535.793,642.526 526.126,642.859 516.5,643.5C 515.448,643.649 514.448,643.483 513.5,643C 514.833,642.333 516.167,641.667 517.5,641C 530.833,640.333 544.167,640.333 557.5,641C 560.402,641.919 560.735,642.752 558.5,643.5 Z"/></g>
<g><path style="opacity:0.008" fill="#2f2f30" d="M 255.5,641.5 C 256.573,642.251 256.74,643.251 256,644.5C 255.517,643.552 255.351,642.552 255.5,641.5 Z"/></g>
<g><path style="opacity:0.009" fill="#3c3d3d" d="M 545.5,642.5 C 549.702,642.183 553.702,642.517 557.5,643.5C 554.881,643.232 552.381,643.565 550,644.5C 548.378,643.901 546.878,643.234 545.5,642.5 Z"/></g>
<g><path style="opacity:0.004" fill="#2e3132" d="M 255.5,646.5 C 256.833,647.167 256.833,647.167 255.5,646.5 Z"/></g>
<g><path style="opacity:0.996" fill="#000000" d="M 512.5,648.5 C 511.667,689.331 511.167,730.331 511,771.5C 510.333,729.833 510.333,688.167 511,646.5C 511.333,646.167 511.667,645.833 512,645.5C 512.483,646.448 512.649,647.448 512.5,648.5 Z"/></g>
<g><path style="opacity:1" fill="#020202" d="M 561.5,770.5 C 562.167,770.5 562.5,770.167 562.5,769.5C 563.833,729.167 563.833,688.833 562.5,648.5C 562.351,647.448 562.517,646.448 563,645.5C 563.333,645.833 563.667,646.167 564,646.5C 564.667,688.167 564.667,729.833 564,771.5C 562.059,775.554 561.225,775.22 561.5,770.5 Z"/></g>
<g><path style="opacity:0.008" fill="#373736" d="M 637.5,648.5 C 637.5,649.5 637.5,650.5 637.5,651.5C 634.833,650.5 634.833,649.5 637.5,648.5 Z"/></g>
<g><path style="opacity:0.012" fill="#303130" d="M 256.5,651.5 C 255.427,650.749 255.26,649.749 256,648.5C 256.483,649.448 256.649,650.448 256.5,651.5 Z"/></g>
<g><path style="opacity:0.004" fill="#303033" d="M 255.5,653.5 C 256.833,654.167 256.833,654.167 255.5,653.5 Z"/></g>
<g><path style="opacity:0.011" fill="#2f3030" d="M 255.5,655.5 C 256.629,657.628 256.796,659.961 256,662.5C 255.503,660.19 255.337,657.857 255.5,655.5 Z"/></g>
<g><path style="opacity:0.006" fill="#393738" d="M 637.5,656.5 C 637.5,657.5 637.5,658.5 637.5,659.5C 636.5,659.167 635.833,658.5 635.5,657.5C 636.167,657.167 636.833,656.833 637.5,656.5 Z"/></g>
<g><path style="opacity:0.015" fill="#373737" d="M 636.5,662.5 C 636.833,662.5 637.167,662.5 637.5,662.5C 637.5,665.5 637.5,668.5 637.5,671.5C 635.365,668.42 635.032,665.42 636.5,662.5 Z"/></g>
<g><path style="opacity:0.016" fill="#303032" d="M 255.5,663.5 C 256.613,664.946 256.78,666.613 256,668.5C 255.506,666.866 255.34,665.199 255.5,663.5 Z"/></g>
<g><path style="opacity:0.009" fill="#282929" d="M 560.5,669.5 C 561.613,670.946 561.78,672.613 561,674.5C 560.5,674 560,673.5 559.5,673C 560.337,671.989 560.67,670.822 560.5,669.5 Z"/></g>
<g><path style="opacity:0.004" fill="#303132" d="M 255.5,669.5 C 256.525,669.897 256.692,670.563 256,671.5C 255.536,670.906 255.369,670.239 255.5,669.5 Z"/></g>
<g><path style="opacity:0.012" fill="#303331" d="M 255.5,673.5 C 256.833,674.167 256.833,674.167 255.5,673.5 Z"/></g>
<g><path style="opacity:0.999" fill="#030303" d="M 449.5,674.5 C 462.266,674.039 474.933,674.539 487.5,676C 473.833,676.667 460.167,676.667 446.5,676C 447.737,675.768 448.737,675.268 449.5,674.5 Z"/></g>
<g><path style="opacity:0.004" fill="#303231" d="M 256.5,682.5 C 255.427,681.749 255.26,680.749 256,679.5C 256.483,680.448 256.649,681.448 256.5,682.5 Z"/></g>
<g><path style="opacity:0.998" fill="#040404" d="M 490.5,772.5 C 490.433,771.041 490.766,769.708 491.5,768.5C 492.833,741.5 492.833,714.5 491.5,687.5C 491.5,686.167 491.5,684.833 491.5,683.5C 491.343,682.127 491.51,680.793 492,679.5C 492.333,680.167 492.667,680.833 493,681.5C 493.667,711.5 493.667,741.5 493,771.5C 492.081,774.402 491.248,774.735 490.5,772.5 Z"/></g>
<g><path style="opacity:0.016" fill="#2a2c2b" d="M 560.5,680.5 C 561.613,681.946 561.78,683.613 561,685.5C 560.626,684.584 560.126,683.75 559.5,683C 560.252,682.329 560.586,681.496 560.5,680.5 Z"/></g>
<g><path style="opacity:0.004" fill="#303132" d="M 256.5,683.5 C 256.649,684.552 256.483,685.552 256,686.5C 255.26,685.251 255.427,684.251 256.5,683.5 Z"/></g>
<g><path style="opacity:0.987" fill="#040505" d="M 442.5,686.5 C 442.2,714.859 442.533,743.192 443.5,771.5C 442.883,771.611 442.383,771.944 442,772.5C 441.667,771.167 441.333,769.833 441,768.5C 440.333,740.167 440.333,711.833 441,683.5C 442.039,684.244 442.539,685.244 442.5,686.5 Z"/></g>
<g><path style="opacity:0.222" fill="#3f4141" d="M 258.5,586.5 C 258.5,644.167 258.5,701.833 258.5,759.5C 257.674,754.684 257.174,749.684 257,744.5C 256.667,745.833 256.333,747.167 256,748.5C 255.833,747.667 255.667,746.833 255.5,746C 257.487,738.622 257.987,731.122 257,723.5C 256.111,724.888 255.611,724.722 255.5,723C 255.611,721.278 256.111,721.112 257,722.5C 257.918,719.937 257.418,717.77 255.5,716C 257.495,715.076 257.828,713.91 256.5,712.5C 256.217,704.115 256.217,694.448 256.5,683.5C 256.5,683.167 256.5,682.833 256.5,682.5C 257.818,672.265 257.818,661.931 256.5,651.5C 257.661,636.005 257.828,620.339 257,604.5C 256.667,605.167 256.333,605.833 256,606.5C 255.333,604.167 255.333,601.833 256,599.5C 256.333,600.833 256.667,602.167 257,603.5C 257.173,597.652 257.673,591.985 258.5,586.5 Z"/></g>
<g><path style="opacity:0.016" fill="#302f31" d="M 255.5,688.5 C 256.525,688.897 256.692,689.563 256,690.5C 255.536,689.906 255.369,689.239 255.5,688.5 Z"/></g>
<g><path style="opacity:0.843" fill="#18191b" d="M 584.5,581.5 C 583.368,645.196 583.368,708.529 584.5,771.5C 583.71,770.391 583.21,769.058 583,767.5C 582.333,706.5 582.333,645.5 583,584.5C 583.232,583.263 583.732,582.263 584.5,581.5 Z"/></g>
<g><path style="opacity:0.004" fill="#2f3132" d="M 256.5,712.5 C 256.631,713.239 256.464,713.906 256,714.5C 255.308,713.563 255.475,712.897 256.5,712.5 Z"/></g>
<g><path style="opacity:0.004" fill="#303131" d="M 413.5,714.5 C 415.698,714.12 417.365,714.787 418.5,716.5C 417.833,716.5 417.5,716.833 417.5,717.5C 416.216,716.443 414.883,715.443 413.5,714.5 Z"/></g>
<g><path style="opacity:0.012" fill="#303231" d="M 255.5,717.5 C 256.525,717.897 256.692,718.563 256,719.5C 255.536,718.906 255.369,718.239 255.5,717.5 Z"/></g>
<g><path style="opacity:0.01" fill="#2b2b2c" d="M 560.5,712.5 C 561.65,717.316 561.816,722.316 561,727.5C 560.8,723.247 560.3,719.08 559.5,715C 560.252,714.329 560.586,713.496 560.5,712.5 Z"/></g>
<g><path style="opacity:0.991" fill="#141515" d="M 371.5,723.5 C 371.608,739.83 371.942,755.83 372.5,771.5C 372.631,772.239 372.464,772.906 372,773.5C 370.956,772.377 370.29,771.044 370,769.5C 369.333,752.833 369.333,736.167 370,719.5C 370.333,719.167 370.667,718.833 371,718.5C 371.494,720.134 371.66,721.801 371.5,723.5 Z"/></g>
<g><path style="opacity:0.008" fill="#272729" d="M 631.5,727.5 C 632.289,727.783 632.956,728.283 633.5,729C 632.184,729.528 631.517,729.028 631.5,727.5 Z"/></g>
<g><path style="opacity:0.012" fill="#2b2b2c" d="M 560.5,736.5 C 560.756,734.208 560.423,732.041 559.5,730C 560,729.5 560.5,729 561,728.5C 561.801,731.367 561.634,734.034 560.5,736.5 Z"/></g>
<g><path style="opacity:0.004" fill="#303232" d="M 255.5,729.5 C 256.622,731.288 256.789,733.288 256,735.5C 255.505,733.527 255.338,731.527 255.5,729.5 Z"/></g>
<g><path style="opacity:0.012" fill="#353535" d="M 637.5,734.5 C 637.5,735.833 637.5,737.167 637.5,738.5C 636.761,738.631 636.094,738.464 635.5,738C 636.833,737.333 636.833,736.667 635.5,736C 636.044,735.283 636.711,734.783 637.5,734.5 Z"/></g>
<g><path style="opacity:0.006" fill="#323132" d="M 255.5,736.5 C 256.573,737.251 256.74,738.251 256,739.5C 255.517,738.552 255.351,737.552 255.5,736.5 Z"/></g>
<g><path style="opacity:0.004" fill="#313232" d="M 255.5,740.5 C 256.525,740.897 256.692,741.563 256,742.5C 255.536,741.906 255.369,741.239 255.5,740.5 Z"/></g>
<g><path style="opacity:0.008" fill="#2a2a2a" d="M 560.5,737.5 C 561.643,740.976 561.81,744.642 561,748.5C 560.598,747.128 560.098,745.795 559.5,744.5C 560.374,742.253 560.708,739.92 560.5,737.5 Z"/></g>
<g><path style="opacity:0.725" fill="#353738" d="M 491.5,687.5 C 492.833,714.5 492.833,741.5 491.5,768.5C 491.484,741.806 491.484,714.806 491.5,687.5 Z"/></g>
<g><path style="opacity:0.445" fill="#363838" d="M 562.5,648.5 C 563.833,688.833 563.833,729.167 562.5,769.5C 562.667,734.832 562.5,700.165 562,665.5C 561.667,666.5 561.333,667.5 561,668.5C 560.333,665.167 560.333,661.833 561,658.5C 561.333,660.5 561.667,662.5 562,664.5C 562.499,659.177 562.666,653.844 562.5,648.5 Z"/></g>
<g><path style="opacity:0.004" fill="#323333" d="M 255.5,749.5 C 256.833,750.167 256.833,750.167 255.5,749.5 Z"/></g>
<g><path style="opacity:0.008" fill="#333534" d="M 255.5,751.5 C 256.573,752.251 256.74,753.251 256,754.5C 255.517,753.552 255.351,752.552 255.5,751.5 Z"/></g>
<g><path style="opacity:0.008" fill="#282828" d="M 419.5,753.5 C 420.573,754.251 420.74,755.251 420,756.5C 418.272,755.648 418.105,754.648 419.5,753.5 Z"/></g>
<g><path style="opacity:0.004" fill="#313233" d="M 255.5,755.5 C 256.833,756.167 256.833,756.167 255.5,755.5 Z"/></g>
<g><path style="opacity:0.008" fill="#333535" d="M 255.5,759.5 C 256.833,760.167 256.833,760.167 255.5,759.5 Z"/></g>
<g><path style="opacity:0.01" fill="#323233" d="M 255.5,764.5 C 255.56,763.957 255.893,763.624 256.5,763.5C 257.614,764.723 257.781,766.056 257,767.5C 256.768,766.263 256.268,765.263 255.5,764.5 Z"/></g>
<g><path style="opacity:0.004" fill="#2d2d2d" d="M 766.5,763.5 C 767.833,764.167 767.833,764.167 766.5,763.5 Z"/></g>
<g><path style="opacity:0.008" fill="#282729" d="M 561.5,770.5 C 561.167,770.5 560.833,770.5 560.5,770.5C 560.389,769.883 560.056,769.383 559.5,769C 561.123,765.946 561.79,766.446 561.5,770.5 Z"/></g>
<g><path style="opacity:0.02" fill="#2e2f30" d="M 766.5,766.5 C 767.833,767.167 767.833,767.167 766.5,766.5 Z"/></g>
<g><path style="opacity:0.004" fill="#2f302f" d="M 255.5,768.5 C 256.833,769.167 256.833,769.167 255.5,768.5 Z"/></g>
<g><path style="opacity:0.004" fill="#2d2d2d" d="M 258.5,769.5 C 257.833,770.167 257.833,770.167 258.5,769.5 Z"/></g>
<g><path style="opacity:0.004" fill="#303030" d="M 257.5,771.5 C 258.573,772.251 258.74,773.251 258,774.5C 257.517,773.552 257.351,772.552 257.5,771.5 Z"/></g>
<g><path style="opacity:0.008" fill="#2a2a29" d="M 446.5,773.5 C 445.537,772.637 445.537,771.97 446.5,771.5C 447.773,772.257 447.773,772.923 446.5,773.5 Z"/></g>
<g><path style="opacity:0.998" fill="#0b0c0c" d="M 375.5,774.5 C 379.519,774.646 383.519,774.979 387.5,775.5C 396.402,776.815 405.402,776.815 414.5,775.5C 414.833,775.5 415.167,775.5 415.5,775.5C 415.611,776.117 415.944,776.617 416.5,777C 402.833,777.667 389.167,777.667 375.5,777C 373.158,775.608 373.158,774.775 375.5,774.5 Z"/></g>
<g><path style="opacity:0.873" fill="#181a1b" d="M 414.5,775.5 C 405.402,776.815 396.402,776.815 387.5,775.5C 396.49,775.392 405.49,775.392 414.5,775.5 Z"/></g>
<g><path style="opacity:0.858" fill="#1b1d1e" d="M 515.5,774.5 C 529.474,775.163 543.14,775.496 556.5,775.5C 544.007,776.66 531.34,776.827 518.5,776C 517.263,775.768 516.263,775.268 515.5,774.5 Z"/></g>
<g><path style="opacity:0.846" fill="#161819" d="M 627.5,775.5 C 616.5,776.833 605.5,776.833 594.5,775.5C 604.882,774.943 615.882,774.943 627.5,775.5 Z"/></g>
<g><path style="opacity:0.004" fill="#2a2e2c" d="M 259.5,779.5 C 260.833,780.167 260.833,780.167 259.5,779.5 Z"/></g>
<g><path style="opacity:0.004" fill="#2f2e2f" d="M 255.5,780.5 C 256.525,780.897 256.692,781.563 256,782.5C 255.536,781.906 255.369,781.239 255.5,780.5 Z"/></g>
<g><path style="opacity:0.004" fill="#2e2f30" d="M 259.5,782.5 C 260.833,783.167 260.833,783.167 259.5,782.5 Z"/></g>
<g><path style="opacity:0.008" fill="#2d3030" d="M 763.5,782.5 C 764.833,783.167 764.833,783.167 763.5,782.5 Z"/></g>
<g><path style="opacity:0.008" fill="#282a29" d="M 760.5,789.5 C 761.833,790.167 761.833,790.167 760.5,789.5 Z"/></g>
<g><path style="opacity:0.004" fill="#2c2e2d" d="M 263.5,800.5 C 264.833,801.167 264.833,801.167 263.5,800.5 Z"/></g>
<g><path style="opacity:0.004" fill="#2a2d2b" d="M 269.5,801.5 C 268.833,802.167 268.833,802.167 269.5,801.5 Z"/></g>
<g><path style="opacity:0.004" fill="#2a2d2e" d="M 267.5,805.5 C 268.833,806.167 268.833,806.167 267.5,805.5 Z"/></g>
<g><path style="opacity:0.004" fill="#2c2c2c" d="M 270.5,806.5 C 271.833,807.167 271.833,807.167 270.5,806.5 Z"/></g>
<g><path style="opacity:0.004" fill="#2b292b" d="M 274.5,809.5 C 274.103,810.525 273.437,810.692 272.5,810C 273.094,809.536 273.761,809.369 274.5,809.5 Z"/></g>
<g><path style="opacity:0.008" fill="#2c2b2d" d="M 750.5,809.5 C 751.833,810.167 751.833,810.167 750.5,809.5 Z"/></g>
<g><path style="opacity:0.004" fill="#2b2d2b" d="M 276.5,812.5 C 275.833,813.167 275.833,813.167 276.5,812.5 Z"/></g>
<g><path style="opacity:0.008" fill="#2b2c2a" d="M 278.5,814.5 C 277.833,815.167 277.833,815.167 278.5,814.5 Z"/></g>
<g><path style="opacity:0.004" fill="#302f31" d="M 281.5,818.5 C 281.631,819.239 281.464,819.906 281,820.5C 280.308,819.563 280.475,818.897 281.5,818.5 Z"/></g>
<g><path style="opacity:0.01" fill="#2e2d2e" d="M 289.5,826.5 C 289.728,828.355 289.061,829.188 287.5,829C 288.066,828.005 288.733,827.172 289.5,826.5 Z"/></g>
<g><path style="opacity:0.004" fill="#2d2d2c" d="M 731.5,829.5 C 732.833,830.167 732.833,830.167 731.5,829.5 Z"/></g>
<g><path style="opacity:0.008" fill="#2c2e2d" d="M 294.5,830.5 C 293.833,831.167 293.833,831.167 294.5,830.5 Z"/></g>
<g><path style="opacity:0.012" fill="#2b2d2c" d="M 297.5,832.5 C 296.833,833.167 296.833,833.167 297.5,832.5 Z"/></g>
<g><path style="opacity:0.004" fill="#2e2f2e" d="M 726.5,833.5 C 727.833,834.167 727.833,834.167 726.5,833.5 Z"/></g>
<g><path style="opacity:0.008" fill="#2d2f2d" d="M 722.5,835.5 C 723.833,836.167 723.833,836.167 722.5,835.5 Z"/></g>
<g><path style="opacity:0.004" fill="#29292b" d="M 295.5,836.5 C 296.833,837.167 296.833,837.167 295.5,836.5 Z"/></g>
<g><path style="opacity:0.004" fill="#2b2b2c" d="M 300.5,836.5 C 301.833,837.167 301.833,837.167 300.5,836.5 Z"/></g>
<g><path style="opacity:0.004" fill="#2c2b2d" d="M 718.5,839.5 C 718.897,838.475 719.563,838.308 720.5,839C 719.906,839.464 719.239,839.631 718.5,839.5 Z"/></g>
<g><path style="opacity:0.012" fill="#2b2b2d" d="M 724.5,838.5 C 725.833,839.167 725.833,839.167 724.5,838.5 Z"/></g>
<g><path style="opacity:0.008" fill="#2c2c2a" d="M 707.5,843.5 C 708.833,844.167 708.833,844.167 707.5,843.5 Z"/></g>
<g><path style="opacity:0.004" fill="#2a2c2a" d="M 318.5,844.5 C 317.833,845.167 317.833,845.167 318.5,844.5 Z"/></g>
<g><path style="opacity:0.004" fill="#2a2c2b" d="M 704.5,845.5 C 705.833,846.167 705.833,846.167 704.5,845.5 Z"/></g>
<g><path style="opacity:0.004" fill="#2a2d2b" d="M 315.5,846.5 C 316.833,847.167 316.833,847.167 315.5,846.5 Z"/></g>
<g><path style="opacity:0.004" fill="#2f3131" d="M 320.5,846.5 C 321.833,847.167 321.833,847.167 320.5,846.5 Z"/></g>
<g><path style="opacity:0.004" fill="#2c2b2d" d="M 699.5,846.5 C 700.239,846.369 700.906,846.536 701.5,847C 700.563,847.692 699.897,847.525 699.5,846.5 Z"/></g>
<g><path style="opacity:0.998" fill="#030303" d="M 691.5,847.5 C 687.79,849.136 683.79,849.802 679.5,849.5C 567.5,849.5 455.5,849.5 343.5,849.5C 453.999,848.667 564.666,848.167 675.5,848C 679.676,847.573 683.842,847.073 688,846.5C 689.385,846.514 690.551,846.848 691.5,847.5 Z"/></g>
<g><path style="opacity:0.004" fill="#2c2d2b" d="M 694.5,848.5 C 695.833,849.167 695.833,849.167 694.5,848.5 Z"/></g>
<g><path style="opacity:0.738" fill="#1a1a1a" d="M 341.5,849.5 C 342.167,849.5 342.833,849.5 343.5,849.5C 455.5,849.5 567.5,849.5 679.5,849.5C 669.098,850.177 658.598,850.844 648,851.5C 632.385,851.03 616.551,850.697 600.5,850.5C 590.105,850.513 579.939,851.179 570,852.5C 562.234,851.183 554.234,850.517 546,850.5C 537.766,850.517 529.766,851.183 522,852.5C 520.82,851.316 519.32,850.649 517.5,850.5C 468.347,850.238 419.18,850.571 370,851.5C 360.402,850.845 350.902,850.178 341.5,849.5 Z"/></g>
<g><path style="opacity:0.004" fill="#2c2c2b" d="M 335.5,851.5 C 336.251,850.427 337.251,850.26 338.5,851C 337.552,851.483 336.552,851.649 335.5,851.5 Z"/></g>
<g><path style="opacity:0.006" fill="#2c2d2e" d="M 686.5,850.5 C 687.525,850.897 687.692,851.563 687,852.5C 686.536,851.906 686.369,851.239 686.5,850.5 Z"/></g>
<g><path style="opacity:0.004" fill="#27292b" d="M 360.5,851.5 C 361.833,852.167 361.833,852.167 360.5,851.5 Z"/></g>
<g><path style="opacity:0.004" fill="#292928" d="M 394.5,851.5 C 395.833,852.167 395.833,852.167 394.5,851.5 Z"/></g>
<g><path style="opacity:0.004" fill="#29292a" d="M 400.5,851.5 C 401.833,852.167 401.833,852.167 400.5,851.5 Z"/></g>
<g><path style="opacity:0.004" fill="#282c28" d="M 417.5,851.5 C 418.833,852.167 418.833,852.167 417.5,851.5 Z"/></g>
<g><path style="opacity:0.004" fill="#272929" d="M 425.5,851.5 C 426.833,852.167 426.833,852.167 425.5,851.5 Z"/></g>
<g><path style="opacity:0.012" fill="#252727" d="M 443.5,851.5 C 444.833,852.167 444.833,852.167 443.5,851.5 Z"/></g>
<g><path style="opacity:0.008" fill="#262828" d="M 446.5,851.5 C 447.833,852.167 447.833,852.167 446.5,851.5 Z"/></g>
<g><path style="opacity:0.004" fill="#282a29" d="M 449.5,851.5 C 450.833,852.167 450.833,852.167 449.5,851.5 Z"/></g>
<g><path style="opacity:0.008" fill="#282928" d="M 454.5,851.5 C 455.833,852.167 455.833,852.167 454.5,851.5 Z"/></g>
<g><path style="opacity:0.008" fill="#2a2729" d="M 469.5,851.5 C 470.833,852.167 470.833,852.167 469.5,851.5 Z"/></g>
<g><path style="opacity:0.004" fill="#272a29" d="M 523.5,851.5 C 524.833,852.167 524.833,852.167 523.5,851.5 Z"/></g>
<g><path style="opacity:0.004" fill="#27292a" d="M 529.5,851.5 C 530.833,852.167 530.833,852.167 529.5,851.5 Z"/></g>
<g><path style="opacity:0.004" fill="#272a2a" d="M 571.5,851.5 C 572.833,852.167 572.833,852.167 571.5,851.5 Z"/></g>
<g><path style="opacity:0.004" fill="#292a28" d="M 574.5,852.5 C 573.833,851.167 573.833,851.167 574.5,852.5 Z"/></g>
<g><path style="opacity:0.004" fill="#29292a" d="M 575.5,851.5 C 576.833,852.167 576.833,852.167 575.5,851.5 Z"/></g>
<g><path style="opacity:0.004" fill="#2a2928" d="M 594.5,851.5 C 595.833,852.167 595.833,852.167 594.5,851.5 Z"/></g>
<g><path style="opacity:0.004" fill="#272929" d="M 601.5,851.5 C 602.833,852.167 602.833,852.167 601.5,851.5 Z"/></g>
<g><path style="opacity:0.004" fill="#282a2a" d="M 649.5,851.5 C 650.833,852.167 650.833,852.167 649.5,851.5 Z"/></g>
<g><path style="opacity:0.004" fill="#282c2b" d="M 654.5,851.5 C 655.833,852.167 655.833,852.167 654.5,851.5 Z"/></g>
<g><path style="opacity:0.012" fill="#2e312f" d="M 673.5,851.5 C 674.833,852.167 674.833,852.167 673.5,851.5 Z"/></g>
<g><path style="opacity:0.012" fill="#2f3030" d="M 675.5,851.5 C 676.833,852.167 676.833,852.167 675.5,851.5 Z"/></g>
<g><path style="opacity:0.004" fill="#2b2c2e" d="M 680.5,850.5 C 681.525,850.897 681.692,851.563 681,852.5C 680.536,851.906 680.369,851.239 680.5,850.5 Z"/></g>
<g><path style="opacity:0.004" fill="#2c2c2d" d="M 366.5,852.5 C 367.833,853.167 367.833,853.167 366.5,852.5 Z"/></g>
<g><path style="opacity:0.004" fill="#2a2a2c" d="M 574.5,852.5 C 574.833,852.5 575.167,852.5 575.5,852.5C 575.315,853.17 574.981,853.17 574.5,852.5 Z"/></g>
<g><path style="opacity:0.004" fill="#292c2a" d="M 368.5,853.5 C 369.833,854.167 369.833,854.167 368.5,853.5 Z"/></g>
<g><path style="opacity:0.004" fill="#2a2b2a" d="M 432.5,853.5 C 433.833,854.167 433.833,854.167 432.5,853.5 Z"/></g>
<g><path style="opacity:0.004" fill="#2a2a2a" d="M 587.5,853.5 C 588.833,854.167 588.833,854.167 587.5,853.5 Z"/></g>
<g><path style="opacity:0.004" fill="#2a2a2b" d="M 619.5,853.5 C 620.833,854.167 620.833,854.167 619.5,853.5 Z"/></g>
<g><path style="opacity:0.004" fill="#292b2b" d="M 388.5,854.5 C 389.833,855.167 389.833,855.167 388.5,854.5 Z"/></g>
<g><path style="opacity:0.004" fill="#2a292b" d="M 596.5,854.5 C 597.833,855.167 597.833,855.167 596.5,854.5 Z"/></g>
<g><path style="opacity:0.004" fill="#2b2b2b" d="M 612.5,854.5 C 613.833,855.167 613.833,855.167 612.5,854.5 Z"/></g>
<g><path style="opacity:0.004" fill="#2d2f2e" d="M 467.5,1005.5 C 468.833,1006.17 468.833,1006.17 467.5,1005.5 Z"/></g>
</svg>
